<mxfile host="app.diagrams.net" agent="Mozilla/5.0 (Windows NT 10.0; Win64; x64) AppleWebKit/537.36 (KHTML, like Gecko) Chrome/131.0.0.0 Safari/537.36" version="24.8.6" pages="4">
  <diagram name="main" id="1sj8Egxh_I2hlWEUKp_c">
    <mxGraphModel dx="1478" dy="655" grid="1" gridSize="10" guides="1" tooltips="1" connect="1" arrows="1" fold="1" page="1" pageScale="1" pageWidth="1169" pageHeight="1654" math="0" shadow="0">
      <root>
        <mxCell id="0" />
        <mxCell id="1" parent="0" />
        <mxCell id="8Bab1-Gc91m3mpsykQkE-1" style="edgeStyle=orthogonalEdgeStyle;rounded=0;orthogonalLoop=1;jettySize=auto;html=1;" parent="1" source="WtFq7ohVQjpLFSURM_Eh-282" edge="1">
          <mxGeometry relative="1" as="geometry">
            <mxPoint x="185" y="180" as="targetPoint" />
          </mxGeometry>
        </mxCell>
        <mxCell id="WtFq7ohVQjpLFSURM_Eh-282" value="&lt;b&gt;&lt;font style=&quot;font-size: 15px;&quot;&gt;start&lt;/font&gt;&lt;/b&gt;" style="ellipse;whiteSpace=wrap;html=1;fillColor=#d5e8d4;strokeColor=#82b366;" parent="1" vertex="1">
          <mxGeometry x="130" y="60" width="110" height="70" as="geometry" />
        </mxCell>
        <mxCell id="Jyb5_7ltQVX23w-imjCT-30" value="&lt;b&gt;&lt;font style=&quot;font-size: 15px;&quot;&gt;end&lt;/font&gt;&lt;/b&gt;" style="ellipse;whiteSpace=wrap;html=1;fillColor=#d5e8d4;strokeColor=#82b366;" parent="1" vertex="1">
          <mxGeometry x="135" y="1550" width="100" height="70" as="geometry" />
        </mxCell>
        <mxCell id="8Bab1-Gc91m3mpsykQkE-5" style="edgeStyle=orthogonalEdgeStyle;rounded=0;orthogonalLoop=1;jettySize=auto;html=1;" parent="1" source="8Bab1-Gc91m3mpsykQkE-2" edge="1">
          <mxGeometry relative="1" as="geometry">
            <mxPoint x="185" y="330" as="targetPoint" />
          </mxGeometry>
        </mxCell>
        <mxCell id="8Bab1-Gc91m3mpsykQkE-2" value="&lt;div style=&quot;font-size: 14px;&quot;&gt;&lt;font style=&quot;font-size: 14px;&quot;&gt;Selamat Datang&lt;/font&gt;&lt;/div&gt;&lt;div style=&quot;font-size: 14px;&quot;&gt;&lt;font style=&quot;font-size: 14px;&quot;&gt;di Servis Motor Putra&lt;/font&gt;&lt;/div&gt;" style="shape=parallelogram;perimeter=parallelogramPerimeter;whiteSpace=wrap;html=1;fixedSize=1;fillColor=#dae8fc;strokeColor=#6c8ebf;align=center;" parent="1" vertex="1">
          <mxGeometry x="95" y="180" width="180" height="90" as="geometry" />
        </mxCell>
        <mxCell id="8Bab1-Gc91m3mpsykQkE-4" value="" style="endArrow=classic;html=1;rounded=0;exitX=1;exitY=1;exitDx=0;exitDy=0;" parent="1" source="8Bab1-Gc91m3mpsykQkE-2" edge="1">
          <mxGeometry width="50" height="50" relative="1" as="geometry">
            <mxPoint x="430" y="390" as="sourcePoint" />
            <mxPoint x="290" y="261" as="targetPoint" />
          </mxGeometry>
        </mxCell>
        <mxCell id="8Bab1-Gc91m3mpsykQkE-9" style="edgeStyle=orthogonalEdgeStyle;rounded=0;orthogonalLoop=1;jettySize=auto;html=1;" parent="1" source="8Bab1-Gc91m3mpsykQkE-6" edge="1">
          <mxGeometry relative="1" as="geometry">
            <mxPoint x="185" y="480" as="targetPoint" />
          </mxGeometry>
        </mxCell>
        <mxCell id="8Bab1-Gc91m3mpsykQkE-6" value="&lt;blockquote style=&quot;margin: 0 0 0 40px; border: none; padding: 0px;&quot;&gt;&lt;br&gt;&lt;/blockquote&gt;" style="shape=parallelogram;perimeter=parallelogramPerimeter;whiteSpace=wrap;html=1;fixedSize=1;fillColor=#dae8fc;strokeColor=#6c8ebf;align=left;" parent="1" vertex="1">
          <mxGeometry x="95" y="330" width="180" height="90" as="geometry" />
        </mxCell>
        <mxCell id="8Bab1-Gc91m3mpsykQkE-7" value="&lt;blockquote style=&quot;margin: 0 0 0 40px; border: none; padding: 0px;&quot;&gt;&lt;b style=&quot;background-color: initial;&quot;&gt;&lt;font style=&quot;font-size: 13px;&quot;&gt;Menu :&lt;br&gt;&lt;/font&gt;&lt;/b&gt;&lt;b style=&quot;background-color: initial; font-size: 13px;&quot;&gt;1.&amp;nbsp;&lt;/b&gt;&lt;span style=&quot;background-color: initial; font-size: 13px;&quot;&gt;Login&lt;br&gt;&lt;/span&gt;&lt;b style=&quot;background-color: initial; font-size: 13px;&quot;&gt;2.&amp;nbsp;&lt;/b&gt;&lt;span style=&quot;background-color: initial; font-size: 13px;&quot;&gt;Register&lt;/span&gt;&lt;div style=&quot;&quot;&gt;&lt;span style=&quot;font-size: 13px;&quot;&gt;&lt;b style=&quot;background-color: initial;&quot;&gt;3.&amp;nbsp;&lt;/b&gt;Exir&lt;/span&gt;&lt;/div&gt;&lt;/blockquote&gt;" style="text;html=1;align=left;verticalAlign=middle;whiteSpace=wrap;rounded=0;" parent="1" vertex="1">
          <mxGeometry x="120" y="335" width="130" height="80" as="geometry" />
        </mxCell>
        <mxCell id="8Bab1-Gc91m3mpsykQkE-8" value="" style="endArrow=classic;html=1;rounded=0;exitX=1;exitY=1;exitDx=0;exitDy=0;" parent="1" source="8Bab1-Gc91m3mpsykQkE-6" edge="1">
          <mxGeometry width="50" height="50" relative="1" as="geometry">
            <mxPoint x="430" y="390" as="sourcePoint" />
            <mxPoint x="290" y="411" as="targetPoint" />
          </mxGeometry>
        </mxCell>
        <mxCell id="8Bab1-Gc91m3mpsykQkE-72" style="edgeStyle=orthogonalEdgeStyle;rounded=0;orthogonalLoop=1;jettySize=auto;html=1;" parent="1" source="8Bab1-Gc91m3mpsykQkE-10" edge="1">
          <mxGeometry relative="1" as="geometry">
            <mxPoint x="185" y="580" as="targetPoint" />
          </mxGeometry>
        </mxCell>
        <mxCell id="8Bab1-Gc91m3mpsykQkE-10" value="&lt;b&gt;Pilih menu :&lt;/b&gt;" style="shape=parallelogram;perimeter=parallelogramPerimeter;whiteSpace=wrap;html=1;fixedSize=1;fillStyle=solid;fillColor=#fff2cc;strokeColor=#d6b656;" parent="1" vertex="1">
          <mxGeometry x="125" y="480" width="120" height="60" as="geometry" />
        </mxCell>
        <mxCell id="8Bab1-Gc91m3mpsykQkE-11" value="" style="endArrow=classic;html=1;rounded=0;" parent="1" edge="1">
          <mxGeometry width="50" height="50" relative="1" as="geometry">
            <mxPoint x="110" y="490" as="sourcePoint" />
            <mxPoint x="140" y="490" as="targetPoint" />
          </mxGeometry>
        </mxCell>
        <mxCell id="8Bab1-Gc91m3mpsykQkE-74" style="edgeStyle=orthogonalEdgeStyle;rounded=0;orthogonalLoop=1;jettySize=auto;html=1;" parent="1" source="8Bab1-Gc91m3mpsykQkE-73" edge="1">
          <mxGeometry relative="1" as="geometry">
            <mxPoint x="185" y="740" as="targetPoint" />
          </mxGeometry>
        </mxCell>
        <mxCell id="8Bab1-Gc91m3mpsykQkE-76" style="edgeStyle=orthogonalEdgeStyle;rounded=0;orthogonalLoop=1;jettySize=auto;html=1;entryX=0;entryY=0.5;entryDx=0;entryDy=0;" parent="1" source="8Bab1-Gc91m3mpsykQkE-73" target="8Bab1-Gc91m3mpsykQkE-78" edge="1">
          <mxGeometry relative="1" as="geometry">
            <mxPoint x="500" y="630" as="targetPoint" />
          </mxGeometry>
        </mxCell>
        <mxCell id="8Bab1-Gc91m3mpsykQkE-73" value="pilihan == 1" style="rhombus;whiteSpace=wrap;html=1;fillColor=#e1d5e7;strokeColor=#9673a6;" parent="1" vertex="1">
          <mxGeometry x="130" y="580" width="110" height="100" as="geometry" />
        </mxCell>
        <mxCell id="8Bab1-Gc91m3mpsykQkE-75" value="&lt;b&gt;&lt;font style=&quot;font-size: 13px;&quot;&gt;Yes&lt;/font&gt;&lt;/b&gt;" style="text;html=1;align=center;verticalAlign=middle;whiteSpace=wrap;rounded=0;" parent="1" vertex="1">
          <mxGeometry x="175" y="690" width="60" height="30" as="geometry" />
        </mxCell>
        <mxCell id="8Bab1-Gc91m3mpsykQkE-77" value="&lt;font size=&quot;1&quot; style=&quot;&quot;&gt;&lt;b style=&quot;font-size: 13px;&quot;&gt;No&lt;/b&gt;&lt;/font&gt;" style="text;html=1;align=center;verticalAlign=middle;whiteSpace=wrap;rounded=0;" parent="1" vertex="1">
          <mxGeometry x="230" y="600" width="60" height="30" as="geometry" />
        </mxCell>
        <mxCell id="Cju90_T9Cqu-THIsaBsu-12" style="edgeStyle=orthogonalEdgeStyle;rounded=0;orthogonalLoop=1;jettySize=auto;html=1;" parent="1" edge="1">
          <mxGeometry relative="1" as="geometry">
            <mxPoint x="804.41" y="750" as="targetPoint" />
            <mxPoint x="804.41" y="680" as="sourcePoint" />
          </mxGeometry>
        </mxCell>
        <mxCell id="Cju90_T9Cqu-THIsaBsu-14" style="edgeStyle=orthogonalEdgeStyle;rounded=0;orthogonalLoop=1;jettySize=auto;html=1;" parent="1" edge="1">
          <mxGeometry relative="1" as="geometry">
            <mxPoint x="929" y="630" as="targetPoint" />
            <mxPoint x="778.9352941176471" y="630.0588235294117" as="sourcePoint" />
          </mxGeometry>
        </mxCell>
        <mxCell id="8Bab1-Gc91m3mpsykQkE-78" value="pilihan == 2" style="rhombus;whiteSpace=wrap;html=1;fillColor=#e1d5e7;strokeColor=#9673a6;" parent="1" vertex="1">
          <mxGeometry x="749" y="580" width="110" height="100" as="geometry" />
        </mxCell>
        <mxCell id="8Bab1-Gc91m3mpsykQkE-82" style="edgeStyle=orthogonalEdgeStyle;rounded=0;orthogonalLoop=1;jettySize=auto;html=1;" parent="1" source="8Bab1-Gc91m3mpsykQkE-79" edge="1">
          <mxGeometry relative="1" as="geometry">
            <mxPoint x="185" y="850" as="targetPoint" />
          </mxGeometry>
        </mxCell>
        <mxCell id="8Bab1-Gc91m3mpsykQkE-79" value="&lt;b&gt;Username&lt;/b&gt;" style="shape=parallelogram;perimeter=parallelogramPerimeter;whiteSpace=wrap;html=1;fixedSize=1;fillStyle=solid;fillColor=#fff2cc;strokeColor=#d6b656;" parent="1" vertex="1">
          <mxGeometry x="125" y="740" width="120" height="60" as="geometry" />
        </mxCell>
        <mxCell id="8Bab1-Gc91m3mpsykQkE-80" value="" style="endArrow=classic;html=1;rounded=0;entryX=0;entryY=0;entryDx=0;entryDy=0;" parent="1" target="8Bab1-Gc91m3mpsykQkE-79" edge="1">
          <mxGeometry width="50" height="50" relative="1" as="geometry">
            <mxPoint x="110" y="749" as="sourcePoint" />
            <mxPoint x="400" y="760" as="targetPoint" />
          </mxGeometry>
        </mxCell>
        <mxCell id="8Bab1-Gc91m3mpsykQkE-84" style="edgeStyle=orthogonalEdgeStyle;rounded=0;orthogonalLoop=1;jettySize=auto;html=1;" parent="1" source="8Bab1-Gc91m3mpsykQkE-81" edge="1">
          <mxGeometry relative="1" as="geometry">
            <mxPoint x="185" y="970" as="targetPoint" />
          </mxGeometry>
        </mxCell>
        <mxCell id="8Bab1-Gc91m3mpsykQkE-81" value="&lt;b&gt;Password&lt;/b&gt;" style="shape=parallelogram;perimeter=parallelogramPerimeter;whiteSpace=wrap;html=1;fixedSize=1;fillStyle=solid;fillColor=#fff2cc;strokeColor=#d6b656;" parent="1" vertex="1">
          <mxGeometry x="125" y="850" width="120" height="60" as="geometry" />
        </mxCell>
        <mxCell id="8Bab1-Gc91m3mpsykQkE-83" value="" style="endArrow=classic;html=1;rounded=0;entryX=0;entryY=0;entryDx=0;entryDy=0;" parent="1" target="8Bab1-Gc91m3mpsykQkE-81" edge="1">
          <mxGeometry width="50" height="50" relative="1" as="geometry">
            <mxPoint x="110" y="859" as="sourcePoint" />
            <mxPoint x="400" y="760" as="targetPoint" />
          </mxGeometry>
        </mxCell>
        <mxCell id="8Bab1-Gc91m3mpsykQkE-86" style="edgeStyle=orthogonalEdgeStyle;rounded=0;orthogonalLoop=1;jettySize=auto;html=1;" parent="1" source="8Bab1-Gc91m3mpsykQkE-85" edge="1">
          <mxGeometry relative="1" as="geometry">
            <mxPoint x="185" y="1170" as="targetPoint" />
          </mxGeometry>
        </mxCell>
        <mxCell id="8Bab1-Gc91m3mpsykQkE-88" style="edgeStyle=orthogonalEdgeStyle;rounded=0;orthogonalLoop=1;jettySize=auto;html=1;" parent="1" source="8Bab1-Gc91m3mpsykQkE-85" edge="1">
          <mxGeometry relative="1" as="geometry">
            <mxPoint x="340" y="1035" as="targetPoint" />
          </mxGeometry>
        </mxCell>
        <mxCell id="8Bab1-Gc91m3mpsykQkE-85" value="username,&lt;div&gt;password, role(user)&amp;nbsp;&lt;/div&gt;&lt;div&gt;== valid&lt;/div&gt;" style="rhombus;whiteSpace=wrap;html=1;fillColor=#e1d5e7;strokeColor=#9673a6;" parent="1" vertex="1">
          <mxGeometry x="111.25" y="970" width="147.5" height="130" as="geometry" />
        </mxCell>
        <mxCell id="8Bab1-Gc91m3mpsykQkE-87" value="&lt;b&gt;&lt;font style=&quot;font-size: 13px;&quot;&gt;Yes&lt;/font&gt;&lt;/b&gt;" style="text;html=1;align=center;verticalAlign=middle;whiteSpace=wrap;rounded=0;" parent="1" vertex="1">
          <mxGeometry x="170" y="1100" width="60" height="30" as="geometry" />
        </mxCell>
        <mxCell id="8Bab1-Gc91m3mpsykQkE-89" value="&lt;font size=&quot;1&quot; style=&quot;&quot;&gt;&lt;b style=&quot;font-size: 13px;&quot;&gt;No&lt;/b&gt;&lt;/font&gt;" style="text;html=1;align=center;verticalAlign=middle;whiteSpace=wrap;rounded=0;" parent="1" vertex="1">
          <mxGeometry x="245" y="1010" width="60" height="30" as="geometry" />
        </mxCell>
        <mxCell id="Cju90_T9Cqu-THIsaBsu-3" style="edgeStyle=orthogonalEdgeStyle;rounded=0;orthogonalLoop=1;jettySize=auto;html=1;" parent="1" source="8Bab1-Gc91m3mpsykQkE-90" edge="1">
          <mxGeometry relative="1" as="geometry">
            <mxPoint x="415" y="1170" as="targetPoint" />
          </mxGeometry>
        </mxCell>
        <mxCell id="Cju90_T9Cqu-THIsaBsu-7" style="edgeStyle=orthogonalEdgeStyle;rounded=0;orthogonalLoop=1;jettySize=auto;html=1;" parent="1" source="8Bab1-Gc91m3mpsykQkE-90" edge="1">
          <mxGeometry relative="1" as="geometry">
            <mxPoint x="570" y="900" as="targetPoint" />
            <Array as="points">
              <mxPoint x="570" y="1035" />
              <mxPoint x="570" y="910" />
            </Array>
          </mxGeometry>
        </mxCell>
        <mxCell id="8Bab1-Gc91m3mpsykQkE-90" value="username,&lt;div&gt;password, role(admin) == valid&lt;/div&gt;" style="rhombus;whiteSpace=wrap;html=1;fillColor=#e1d5e7;strokeColor=#9673a6;" parent="1" vertex="1">
          <mxGeometry x="340" y="965" width="150" height="140" as="geometry" />
        </mxCell>
        <mxCell id="Cju90_T9Cqu-THIsaBsu-1" value="" style="shape=offPageConnector;whiteSpace=wrap;html=1;fillColor=#b1ddf0;strokeColor=#10739e;" parent="1" vertex="1">
          <mxGeometry x="145" y="1170" width="80" height="80" as="geometry" />
        </mxCell>
        <mxCell id="Cju90_T9Cqu-THIsaBsu-2" value="&lt;b&gt;USER&lt;/b&gt;" style="text;html=1;align=center;verticalAlign=middle;whiteSpace=wrap;rounded=0;" parent="1" vertex="1">
          <mxGeometry x="155" y="1190" width="60" height="30" as="geometry" />
        </mxCell>
        <mxCell id="Cju90_T9Cqu-THIsaBsu-4" value="&lt;b&gt;&lt;font style=&quot;font-size: 13px;&quot;&gt;Yes&lt;/font&gt;&lt;/b&gt;" style="text;html=1;align=center;verticalAlign=middle;whiteSpace=wrap;rounded=0;" parent="1" vertex="1">
          <mxGeometry x="410" y="1100" width="60" height="30" as="geometry" />
        </mxCell>
        <mxCell id="Cju90_T9Cqu-THIsaBsu-5" value="" style="shape=offPageConnector;whiteSpace=wrap;html=1;fillColor=#bac8d3;strokeColor=#23445d;" parent="1" vertex="1">
          <mxGeometry x="375" y="1170" width="80" height="80" as="geometry" />
        </mxCell>
        <mxCell id="Cju90_T9Cqu-THIsaBsu-6" value="&lt;b&gt;ADMIN&lt;/b&gt;" style="text;html=1;align=center;verticalAlign=middle;whiteSpace=wrap;rounded=0;" parent="1" vertex="1">
          <mxGeometry x="385" y="1190" width="60" height="30" as="geometry" />
        </mxCell>
        <mxCell id="Cju90_T9Cqu-THIsaBsu-8" value="&lt;font size=&quot;1&quot; style=&quot;&quot;&gt;&lt;b style=&quot;font-size: 13px;&quot;&gt;No&lt;/b&gt;&lt;/font&gt;" style="text;html=1;align=center;verticalAlign=middle;whiteSpace=wrap;rounded=0;" parent="1" vertex="1">
          <mxGeometry x="480" y="1010" width="60" height="30" as="geometry" />
        </mxCell>
        <mxCell id="Cju90_T9Cqu-THIsaBsu-11" style="edgeStyle=orthogonalEdgeStyle;rounded=0;orthogonalLoop=1;jettySize=auto;html=1;" parent="1" source="Cju90_T9Cqu-THIsaBsu-9" edge="1">
          <mxGeometry relative="1" as="geometry">
            <mxPoint x="570" y="140" as="targetPoint" />
          </mxGeometry>
        </mxCell>
        <mxCell id="Cju90_T9Cqu-THIsaBsu-9" value="&lt;div style=&quot;font-size: 14px;&quot;&gt;Username atau&amp;nbsp;&lt;/div&gt;&lt;div style=&quot;font-size: 14px;&quot;&gt;Password salah&lt;/div&gt;" style="shape=parallelogram;perimeter=parallelogramPerimeter;whiteSpace=wrap;html=1;fixedSize=1;fillColor=#dae8fc;strokeColor=#6c8ebf;align=center;" parent="1" vertex="1">
          <mxGeometry x="480" y="810" width="180" height="90" as="geometry" />
        </mxCell>
        <mxCell id="Cju90_T9Cqu-THIsaBsu-10" value="" style="endArrow=classic;html=1;rounded=0;exitX=1;exitY=1;exitDx=0;exitDy=0;" parent="1" source="Cju90_T9Cqu-THIsaBsu-9" edge="1">
          <mxGeometry width="50" height="50" relative="1" as="geometry">
            <mxPoint x="490" y="900" as="sourcePoint" />
            <mxPoint x="680" y="891" as="targetPoint" />
          </mxGeometry>
        </mxCell>
        <mxCell id="Cju90_T9Cqu-THIsaBsu-13" value="&lt;b&gt;&lt;font style=&quot;font-size: 13px;&quot;&gt;Yes&lt;/font&gt;&lt;/b&gt;" style="text;html=1;align=center;verticalAlign=middle;whiteSpace=wrap;rounded=0;" parent="1" vertex="1">
          <mxGeometry x="800" y="690" width="60" height="30" as="geometry" />
        </mxCell>
        <mxCell id="Cju90_T9Cqu-THIsaBsu-15" value="&lt;font size=&quot;1&quot; style=&quot;&quot;&gt;&lt;b style=&quot;font-size: 13px;&quot;&gt;No&lt;/b&gt;&lt;/font&gt;" style="text;html=1;align=center;verticalAlign=middle;whiteSpace=wrap;rounded=0;" parent="1" vertex="1">
          <mxGeometry x="850" y="600" width="60" height="30" as="geometry" />
        </mxCell>
        <mxCell id="Cju90_T9Cqu-THIsaBsu-19" style="edgeStyle=orthogonalEdgeStyle;rounded=0;orthogonalLoop=1;jettySize=auto;html=1;entryX=0.97;entryY=0.582;entryDx=0;entryDy=0;entryPerimeter=0;" parent="1" target="Jyb5_7ltQVX23w-imjCT-30" edge="1">
          <mxGeometry relative="1" as="geometry">
            <mxPoint x="250" y="1590" as="targetPoint" />
            <mxPoint x="985" y="680" as="sourcePoint" />
            <Array as="points">
              <mxPoint x="985" y="1591" />
            </Array>
          </mxGeometry>
        </mxCell>
        <mxCell id="Cju90_T9Cqu-THIsaBsu-50" style="edgeStyle=orthogonalEdgeStyle;rounded=0;orthogonalLoop=1;jettySize=auto;html=1;" parent="1" source="Cju90_T9Cqu-THIsaBsu-16" edge="1">
          <mxGeometry relative="1" as="geometry">
            <mxPoint x="1080" y="530" as="targetPoint" />
          </mxGeometry>
        </mxCell>
        <mxCell id="Cju90_T9Cqu-THIsaBsu-16" value="pilihan == 3" style="rhombus;whiteSpace=wrap;html=1;fillColor=#e1d5e7;strokeColor=#9673a6;" parent="1" vertex="1">
          <mxGeometry x="930" y="580" width="110" height="100" as="geometry" />
        </mxCell>
        <mxCell id="Cju90_T9Cqu-THIsaBsu-18" value="&lt;b&gt;&lt;font style=&quot;font-size: 13px;&quot;&gt;Yes&lt;/font&gt;&lt;/b&gt;" style="text;html=1;align=center;verticalAlign=middle;whiteSpace=wrap;rounded=0;" parent="1" vertex="1">
          <mxGeometry x="980" y="690" width="60" height="30" as="geometry" />
        </mxCell>
        <mxCell id="Cju90_T9Cqu-THIsaBsu-37" style="edgeStyle=orthogonalEdgeStyle;rounded=0;orthogonalLoop=1;jettySize=auto;html=1;" parent="1" source="Cju90_T9Cqu-THIsaBsu-35" edge="1">
          <mxGeometry relative="1" as="geometry">
            <mxPoint x="804" y="860" as="targetPoint" />
          </mxGeometry>
        </mxCell>
        <mxCell id="Cju90_T9Cqu-THIsaBsu-35" value="&lt;b&gt;Name&lt;/b&gt;" style="shape=parallelogram;perimeter=parallelogramPerimeter;whiteSpace=wrap;html=1;fixedSize=1;fillStyle=solid;fillColor=#fff2cc;strokeColor=#d6b656;" parent="1" vertex="1">
          <mxGeometry x="744" y="750" width="120" height="60" as="geometry" />
        </mxCell>
        <mxCell id="Cju90_T9Cqu-THIsaBsu-39" style="edgeStyle=orthogonalEdgeStyle;rounded=0;orthogonalLoop=1;jettySize=auto;html=1;entryX=0.5;entryY=0;entryDx=0;entryDy=0;" parent="1" source="Cju90_T9Cqu-THIsaBsu-36" target="Cju90_T9Cqu-THIsaBsu-38" edge="1">
          <mxGeometry relative="1" as="geometry" />
        </mxCell>
        <mxCell id="Cju90_T9Cqu-THIsaBsu-36" value="&lt;b&gt;Username&lt;/b&gt;" style="shape=parallelogram;perimeter=parallelogramPerimeter;whiteSpace=wrap;html=1;fixedSize=1;fillStyle=solid;fillColor=#fff2cc;strokeColor=#d6b656;" parent="1" vertex="1">
          <mxGeometry x="744" y="860" width="120" height="60" as="geometry" />
        </mxCell>
        <mxCell id="Cju90_T9Cqu-THIsaBsu-40" style="edgeStyle=orthogonalEdgeStyle;rounded=0;orthogonalLoop=1;jettySize=auto;html=1;" parent="1" source="Cju90_T9Cqu-THIsaBsu-38" edge="1">
          <mxGeometry relative="1" as="geometry">
            <mxPoint x="804" y="1080" as="targetPoint" />
          </mxGeometry>
        </mxCell>
        <mxCell id="Cju90_T9Cqu-THIsaBsu-38" value="&lt;b&gt;Password&lt;/b&gt;" style="shape=parallelogram;perimeter=parallelogramPerimeter;whiteSpace=wrap;html=1;fixedSize=1;fillStyle=solid;fillColor=#fff2cc;strokeColor=#d6b656;" parent="1" vertex="1">
          <mxGeometry x="744" y="970" width="120" height="60" as="geometry" />
        </mxCell>
        <mxCell id="Cju90_T9Cqu-THIsaBsu-42" style="edgeStyle=orthogonalEdgeStyle;rounded=0;orthogonalLoop=1;jettySize=auto;html=1;" parent="1" source="Cju90_T9Cqu-THIsaBsu-41" edge="1">
          <mxGeometry relative="1" as="geometry">
            <mxPoint x="804" y="1220" as="targetPoint" />
          </mxGeometry>
        </mxCell>
        <mxCell id="Cju90_T9Cqu-THIsaBsu-41" value="&lt;b&gt;Store&lt;/b&gt;&lt;div&gt;Name, Username dan Password&lt;/div&gt;" style="rounded=0;whiteSpace=wrap;html=1;fillColor=#fad9d5;strokeColor=#ae4132;" parent="1" vertex="1">
          <mxGeometry x="729" y="1080" width="150" height="80" as="geometry" />
        </mxCell>
        <mxCell id="8f4uYPAJVQdJAInO0MgO-1" style="edgeStyle=orthogonalEdgeStyle;rounded=0;orthogonalLoop=1;jettySize=auto;html=1;" parent="1" source="Cju90_T9Cqu-THIsaBsu-43" edge="1">
          <mxGeometry relative="1" as="geometry">
            <mxPoint x="700" y="140" as="targetPoint" />
          </mxGeometry>
        </mxCell>
        <mxCell id="Cju90_T9Cqu-THIsaBsu-43" value="" style="shape=cylinder3;whiteSpace=wrap;html=1;boundedLbl=1;backgroundOutline=1;size=15;fillColor=#ffcc99;strokeColor=#36393d;" parent="1" vertex="1">
          <mxGeometry x="760" y="1220" width="90" height="100" as="geometry" />
        </mxCell>
        <mxCell id="Cju90_T9Cqu-THIsaBsu-44" value="&lt;b&gt;&lt;font style=&quot;font-size: 14px;&quot;&gt;Database&lt;/font&gt;&lt;/b&gt;" style="text;html=1;align=center;verticalAlign=middle;whiteSpace=wrap;rounded=0;" parent="1" vertex="1">
          <mxGeometry x="775" y="1270" width="60" height="30" as="geometry" />
        </mxCell>
        <mxCell id="Cju90_T9Cqu-THIsaBsu-55" style="edgeStyle=orthogonalEdgeStyle;rounded=0;orthogonalLoop=1;jettySize=auto;html=1;" parent="1" source="Cju90_T9Cqu-THIsaBsu-48" edge="1">
          <mxGeometry relative="1" as="geometry">
            <mxPoint x="190" y="140" as="targetPoint" />
            <Array as="points">
              <mxPoint x="1080" y="140" />
            </Array>
          </mxGeometry>
        </mxCell>
        <mxCell id="Cju90_T9Cqu-THIsaBsu-48" value="&lt;b&gt;Menu tidak&amp;nbsp;&lt;/b&gt;&lt;div&gt;&lt;b&gt;tersedia&lt;/b&gt;&lt;/div&gt;" style="shape=parallelogram;perimeter=parallelogramPerimeter;whiteSpace=wrap;html=1;fixedSize=1;fillColor=#fff2cc;strokeColor=#d6b656;" parent="1" vertex="1">
          <mxGeometry x="1020" y="470" width="120" height="60" as="geometry" />
        </mxCell>
        <mxCell id="Cju90_T9Cqu-THIsaBsu-51" value="&lt;font size=&quot;1&quot; style=&quot;&quot;&gt;&lt;b style=&quot;font-size: 13px;&quot;&gt;No&lt;/b&gt;&lt;/font&gt;" style="text;html=1;align=center;verticalAlign=middle;whiteSpace=wrap;rounded=0;" parent="1" vertex="1">
          <mxGeometry x="1020" y="600" width="60" height="30" as="geometry" />
        </mxCell>
        <mxCell id="Cju90_T9Cqu-THIsaBsu-54" value="" style="endArrow=classic;html=1;rounded=0;exitX=1;exitY=1;exitDx=0;exitDy=0;" parent="1" edge="1">
          <mxGeometry width="50" height="50" relative="1" as="geometry">
            <mxPoint x="1123" y="520" as="sourcePoint" />
            <mxPoint x="1161" y="520" as="targetPoint" />
          </mxGeometry>
        </mxCell>
        <mxCell id="_PWUBiUnSZ6GA9XXGU5L-1" style="edgeStyle=orthogonalEdgeStyle;rounded=0;orthogonalLoop=1;jettySize=auto;html=1;" edge="1" parent="1" source="NIM3Iw_s2TP5JjCTTLHc-1">
          <mxGeometry relative="1" as="geometry">
            <mxPoint x="330" y="140" as="targetPoint" />
          </mxGeometry>
        </mxCell>
        <mxCell id="NIM3Iw_s2TP5JjCTTLHc-1" value="" style="shape=offPageConnector;whiteSpace=wrap;html=1;fillColor=#b1ddf0;strokeColor=#10739e;" parent="1" vertex="1">
          <mxGeometry x="290" y="10" width="80" height="80" as="geometry" />
        </mxCell>
        <mxCell id="NIM3Iw_s2TP5JjCTTLHc-2" value="&lt;b&gt;USER&lt;/b&gt;&lt;div&gt;&lt;b&gt;OUT&lt;/b&gt;&lt;/div&gt;" style="text;html=1;align=center;verticalAlign=middle;whiteSpace=wrap;rounded=0;" parent="1" vertex="1">
          <mxGeometry x="300" y="35" width="60" height="30" as="geometry" />
        </mxCell>
        <mxCell id="_PWUBiUnSZ6GA9XXGU5L-2" style="edgeStyle=orthogonalEdgeStyle;rounded=0;orthogonalLoop=1;jettySize=auto;html=1;" edge="1" parent="1" source="1lz2xGd8JVycjGEQTNRA-1">
          <mxGeometry relative="1" as="geometry">
            <mxPoint x="519" y="140" as="targetPoint" />
          </mxGeometry>
        </mxCell>
        <mxCell id="1lz2xGd8JVycjGEQTNRA-1" value="" style="shape=offPageConnector;whiteSpace=wrap;html=1;fillColor=#b1ddf0;strokeColor=#10739e;" parent="1" vertex="1">
          <mxGeometry x="479" y="10" width="80" height="80" as="geometry" />
        </mxCell>
        <mxCell id="1lz2xGd8JVycjGEQTNRA-2" value="&lt;b&gt;ADMIN&lt;/b&gt;&lt;br&gt;&lt;div&gt;&lt;b&gt;OUT&lt;/b&gt;&lt;/div&gt;" style="text;html=1;align=center;verticalAlign=middle;whiteSpace=wrap;rounded=0;" parent="1" vertex="1">
          <mxGeometry x="489" y="35" width="60" height="30" as="geometry" />
        </mxCell>
        <mxCell id="AASXi5bh8Sig8QjyDUw7-2" value="" style="endArrow=classic;html=1;rounded=0;entryX=0;entryY=0;entryDx=0;entryDy=0;" edge="1" parent="1" target="Cju90_T9Cqu-THIsaBsu-35">
          <mxGeometry width="50" height="50" relative="1" as="geometry">
            <mxPoint x="730" y="760" as="sourcePoint" />
            <mxPoint x="670" y="800" as="targetPoint" />
          </mxGeometry>
        </mxCell>
        <mxCell id="AASXi5bh8Sig8QjyDUw7-3" value="" style="endArrow=classic;html=1;rounded=0;entryX=0;entryY=0;entryDx=0;entryDy=0;" edge="1" parent="1" target="Cju90_T9Cqu-THIsaBsu-36">
          <mxGeometry width="50" height="50" relative="1" as="geometry">
            <mxPoint x="730" y="869" as="sourcePoint" />
            <mxPoint x="670" y="800" as="targetPoint" />
          </mxGeometry>
        </mxCell>
        <mxCell id="AASXi5bh8Sig8QjyDUw7-4" value="" style="endArrow=classic;html=1;rounded=0;entryX=0;entryY=0;entryDx=0;entryDy=0;" edge="1" parent="1" target="Cju90_T9Cqu-THIsaBsu-38">
          <mxGeometry width="50" height="50" relative="1" as="geometry">
            <mxPoint x="730" y="980" as="sourcePoint" />
            <mxPoint x="670" y="800" as="targetPoint" />
          </mxGeometry>
        </mxCell>
      </root>
    </mxGraphModel>
  </diagram>
  <diagram id="37ipbCvi4JjPVXRftraQ" name="user">
    <mxGraphModel dx="309" dy="655" grid="1" gridSize="10" guides="1" tooltips="1" connect="1" arrows="1" fold="1" page="1" pageScale="1" pageWidth="1169" pageHeight="1654" math="0" shadow="0">
      <root>
        <mxCell id="0" />
        <mxCell id="1" parent="0" />
        <mxCell id="WmOf2p4oGggp81m5UURp-1" style="edgeStyle=orthogonalEdgeStyle;rounded=0;orthogonalLoop=1;jettySize=auto;html=1;" parent="1" source="gS--e0eWq8A-xHmKVuRR-2" edge="1">
          <mxGeometry relative="1" as="geometry">
            <mxPoint x="1360" y="249" as="targetPoint" />
          </mxGeometry>
        </mxCell>
        <mxCell id="gS--e0eWq8A-xHmKVuRR-2" value="" style="shape=offPageConnector;whiteSpace=wrap;html=1;fillColor=#b1ddf0;strokeColor=#10739e;" parent="1" vertex="1">
          <mxGeometry x="1320" y="114" width="80" height="80" as="geometry" />
        </mxCell>
        <mxCell id="gS--e0eWq8A-xHmKVuRR-3" value="&lt;b&gt;USER&lt;/b&gt;" style="text;html=1;align=center;verticalAlign=middle;whiteSpace=wrap;rounded=0;" parent="1" vertex="1">
          <mxGeometry x="1330" y="139" width="60" height="30" as="geometry" />
        </mxCell>
        <mxCell id="FVDAsldGhMho3WFAQKwU-4" style="edgeStyle=orthogonalEdgeStyle;rounded=0;orthogonalLoop=1;jettySize=auto;html=1;" parent="1" source="FVDAsldGhMho3WFAQKwU-1" edge="1">
          <mxGeometry relative="1" as="geometry">
            <mxPoint x="1359.25" y="523" as="targetPoint" />
          </mxGeometry>
        </mxCell>
        <mxCell id="FVDAsldGhMho3WFAQKwU-1" value="" style="shape=cylinder3;whiteSpace=wrap;html=1;boundedLbl=1;backgroundOutline=1;size=15;fillColor=#ffcc99;strokeColor=#36393d;" parent="1" vertex="1">
          <mxGeometry x="1315.25" y="373" width="90" height="100" as="geometry" />
        </mxCell>
        <mxCell id="FVDAsldGhMho3WFAQKwU-2" value="&lt;b&gt;&lt;font style=&quot;font-size: 14px;&quot;&gt;Database&lt;/font&gt;&lt;/b&gt;" style="text;html=1;align=center;verticalAlign=middle;whiteSpace=wrap;rounded=0;" parent="1" vertex="1">
          <mxGeometry x="1329.25" y="423" width="60" height="30" as="geometry" />
        </mxCell>
        <mxCell id="w-WpjZ05zoKN0KY1CS9i-5" style="edgeStyle=orthogonalEdgeStyle;rounded=0;orthogonalLoop=1;jettySize=auto;html=1;" parent="1" source="-TJolrCBMzq0CIhRWQBS-1" edge="1">
          <mxGeometry relative="1" as="geometry">
            <mxPoint x="1359.25" y="663" as="targetPoint" />
          </mxGeometry>
        </mxCell>
        <mxCell id="-TJolrCBMzq0CIhRWQBS-1" value="&lt;div style=&quot;font-size: 14px;&quot;&gt;Menampilkan motor yang sedang&lt;/div&gt;&lt;div style=&quot;font-size: 14px;&quot;&gt;di servis User bila ada&lt;/div&gt;" style="shape=parallelogram;perimeter=parallelogramPerimeter;whiteSpace=wrap;html=1;fixedSize=1;fillColor=#dae8fc;strokeColor=#6c8ebf;align=center;" parent="1" vertex="1">
          <mxGeometry x="1263" y="523" width="192.5" height="90" as="geometry" />
        </mxCell>
        <mxCell id="-TJolrCBMzq0CIhRWQBS-2" value="" style="endArrow=classic;html=1;rounded=0;exitX=1;exitY=1;exitDx=0;exitDy=0;" parent="1" source="-TJolrCBMzq0CIhRWQBS-1" edge="1">
          <mxGeometry width="50" height="50" relative="1" as="geometry">
            <mxPoint x="1596.75" y="733" as="sourcePoint" />
            <mxPoint x="1469.25" y="604" as="targetPoint" />
          </mxGeometry>
        </mxCell>
        <mxCell id="cmQ8oOClTgwEnL59n0cI-4" style="edgeStyle=orthogonalEdgeStyle;rounded=0;orthogonalLoop=1;jettySize=auto;html=1;" parent="1" source="w-WpjZ05zoKN0KY1CS9i-6" edge="1">
          <mxGeometry relative="1" as="geometry">
            <mxPoint x="1354.25" y="940" as="targetPoint" />
          </mxGeometry>
        </mxCell>
        <mxCell id="w-WpjZ05zoKN0KY1CS9i-6" value="&lt;b&gt;Pilih menu :&lt;/b&gt;" style="shape=parallelogram;perimeter=parallelogramPerimeter;whiteSpace=wrap;html=1;fixedSize=1;fillStyle=solid;fillColor=#fff2cc;strokeColor=#d6b656;" parent="1" vertex="1">
          <mxGeometry x="1294.25" y="827" width="120" height="60" as="geometry" />
        </mxCell>
        <mxCell id="w-WpjZ05zoKN0KY1CS9i-7" value="" style="endArrow=classic;html=1;rounded=0;" parent="1" edge="1">
          <mxGeometry width="50" height="50" relative="1" as="geometry">
            <mxPoint x="1279.25" y="837" as="sourcePoint" />
            <mxPoint x="1309.25" y="837" as="targetPoint" />
          </mxGeometry>
        </mxCell>
        <mxCell id="cmQ8oOClTgwEnL59n0cI-3" style="edgeStyle=orthogonalEdgeStyle;rounded=0;orthogonalLoop=1;jettySize=auto;html=1;entryX=0.5;entryY=0;entryDx=0;entryDy=0;" parent="1" source="QLtemvmk9hczYWL8dK6e-1" target="w-WpjZ05zoKN0KY1CS9i-6" edge="1">
          <mxGeometry relative="1" as="geometry" />
        </mxCell>
        <mxCell id="QLtemvmk9hczYWL8dK6e-1" value="&lt;blockquote style=&quot;margin: 0 0 0 40px; border: none; padding: 0px;&quot;&gt;&lt;br&gt;&lt;/blockquote&gt;" style="shape=parallelogram;perimeter=parallelogramPerimeter;whiteSpace=wrap;html=1;fixedSize=1;fillColor=#dae8fc;strokeColor=#6c8ebf;align=left;" parent="1" vertex="1">
          <mxGeometry x="1250" y="663" width="210" height="117" as="geometry" />
        </mxCell>
        <mxCell id="QLtemvmk9hczYWL8dK6e-2" value="&lt;blockquote style=&quot;margin: 0 0 0 40px; border: none; padding: 0px;&quot;&gt;&lt;b style=&quot;background-color: initial;&quot;&gt;&lt;font style=&quot;font-size: 13px;&quot;&gt;Menu User:&lt;/font&gt;&lt;/b&gt;&lt;/blockquote&gt;&lt;blockquote style=&quot;margin: 0 0 0 40px; border: none; padding: 0px;&quot;&gt;&lt;b style=&quot;background-color: initial; font-size: 13px;&quot;&gt;1.&lt;/b&gt;&lt;span style=&quot;background-color: initial; font-size: 13px;&quot;&gt;Booking&lt;/span&gt;&lt;span style=&quot;background-color: initial; font-size: 13px;&quot;&gt;Servis motor&lt;/span&gt;&lt;/blockquote&gt;&lt;blockquote style=&quot;margin: 0 0 0 40px; border: none; padding: 0px;&quot;&gt;&lt;span style=&quot;font-size: 13px;&quot;&gt;&lt;b&gt;2. &lt;/b&gt;Update Keluhan&lt;br&gt;&lt;/span&gt;&lt;div style=&quot;&quot;&gt;&lt;span style=&quot;font-size: 13px;&quot;&gt;&lt;b style=&quot;background-color: initial;&quot;&gt;3. &lt;/b&gt;&lt;span style=&quot;background-color: initial;&quot;&gt;Histori Service&lt;/span&gt;&lt;/span&gt;&lt;/div&gt;&lt;div style=&quot;&quot;&gt;&lt;span style=&quot;font-size: 13px;&quot;&gt;&lt;span style=&quot;background-color: initial;&quot;&gt;4. Exit&lt;/span&gt;&lt;/span&gt;&lt;/div&gt;&lt;/blockquote&gt;" style="text;html=1;align=left;verticalAlign=middle;whiteSpace=wrap;rounded=0;" parent="1" vertex="1">
          <mxGeometry x="1281.25" y="681.5" width="130" height="80" as="geometry" />
        </mxCell>
        <mxCell id="z9hc9azOnSIbue83XmWO-1" style="edgeStyle=orthogonalEdgeStyle;rounded=0;orthogonalLoop=1;jettySize=auto;html=1;" parent="1" source="z9hc9azOnSIbue83XmWO-2" edge="1">
          <mxGeometry relative="1" as="geometry">
            <mxPoint x="1600" y="993" as="targetPoint" />
          </mxGeometry>
        </mxCell>
        <mxCell id="y3MMcflpuHaLX4d1jd5e-8" style="edgeStyle=orthogonalEdgeStyle;rounded=0;orthogonalLoop=1;jettySize=auto;html=1;" parent="1" source="z9hc9azOnSIbue83XmWO-2" edge="1">
          <mxGeometry relative="1" as="geometry">
            <mxPoint x="1354.25" y="1109" as="targetPoint" />
          </mxGeometry>
        </mxCell>
        <mxCell id="z9hc9azOnSIbue83XmWO-2" value="pilihan == 1" style="rhombus;whiteSpace=wrap;html=1;fillColor=#e1d5e7;strokeColor=#9673a6;" parent="1" vertex="1">
          <mxGeometry x="1299.25" y="943" width="110" height="100" as="geometry" />
        </mxCell>
        <mxCell id="z9hc9azOnSIbue83XmWO-3" value="&lt;b&gt;&lt;font style=&quot;font-size: 13px;&quot;&gt;Yes&lt;/font&gt;&lt;/b&gt;" style="text;html=1;align=center;verticalAlign=middle;whiteSpace=wrap;rounded=0;" parent="1" vertex="1">
          <mxGeometry x="1354.25" y="1049" width="60" height="30" as="geometry" />
        </mxCell>
        <mxCell id="z9hc9azOnSIbue83XmWO-4" value="&lt;font size=&quot;1&quot; style=&quot;&quot;&gt;&lt;b style=&quot;font-size: 13px;&quot;&gt;No&lt;/b&gt;&lt;/font&gt;" style="text;html=1;align=center;verticalAlign=middle;whiteSpace=wrap;rounded=0;" parent="1" vertex="1">
          <mxGeometry x="1399.25" y="963" width="60" height="30" as="geometry" />
        </mxCell>
        <mxCell id="z9hc9azOnSIbue83XmWO-6" value="&lt;font size=&quot;1&quot;&gt;&lt;b style=&quot;font-size: 12px;&quot;&gt;MENU_USER&lt;/b&gt;&lt;/font&gt;" style="shape=process;whiteSpace=wrap;html=1;backgroundOutline=1;fillColor=#d5e8d4;strokeColor=#82b366;gradientColor=#97d077;" parent="1" vertex="1">
          <mxGeometry x="1300" y="249" width="120" height="60" as="geometry" />
        </mxCell>
        <mxCell id="z9hc9azOnSIbue83XmWO-10" style="edgeStyle=orthogonalEdgeStyle;rounded=0;orthogonalLoop=1;jettySize=auto;html=1;entryX=0.5;entryY=0;entryDx=0;entryDy=0;entryPerimeter=0;" parent="1" source="z9hc9azOnSIbue83XmWO-6" target="FVDAsldGhMho3WFAQKwU-1" edge="1">
          <mxGeometry relative="1" as="geometry" />
        </mxCell>
        <mxCell id="Jgrr_PVPzE78WpcQoq51-4" value="&lt;b&gt;Nama Motor&lt;/b&gt;" style="shape=parallelogram;perimeter=parallelogramPerimeter;whiteSpace=wrap;html=1;fixedSize=1;fillStyle=solid;fillColor=#fff2cc;strokeColor=#d6b656;" parent="1" vertex="1">
          <mxGeometry x="1296.25" y="1110" width="120" height="60" as="geometry" />
        </mxCell>
        <mxCell id="Jgrr_PVPzE78WpcQoq51-5" value="" style="endArrow=classic;html=1;rounded=0;entryX=0;entryY=0;entryDx=0;entryDy=0;" parent="1" target="Jgrr_PVPzE78WpcQoq51-4" edge="1">
          <mxGeometry width="50" height="50" relative="1" as="geometry">
            <mxPoint x="1281.25" y="1119" as="sourcePoint" />
            <mxPoint x="1571.25" y="1130" as="targetPoint" />
          </mxGeometry>
        </mxCell>
        <mxCell id="Jgrr_PVPzE78WpcQoq51-11" style="edgeStyle=orthogonalEdgeStyle;rounded=0;orthogonalLoop=1;jettySize=auto;html=1;entryX=0.5;entryY=0;entryDx=0;entryDy=0;" parent="1" target="Jgrr_PVPzE78WpcQoq51-9" edge="1">
          <mxGeometry relative="1" as="geometry">
            <mxPoint x="1352.2941176470588" y="1171" as="sourcePoint" />
          </mxGeometry>
        </mxCell>
        <mxCell id="Jgrr_PVPzE78WpcQoq51-12" style="edgeStyle=orthogonalEdgeStyle;rounded=0;orthogonalLoop=1;jettySize=auto;html=1;" parent="1" source="Jgrr_PVPzE78WpcQoq51-9" edge="1">
          <mxGeometry relative="1" as="geometry">
            <mxPoint x="1352" y="1321" as="targetPoint" />
          </mxGeometry>
        </mxCell>
        <mxCell id="Jgrr_PVPzE78WpcQoq51-9" value="&lt;b&gt;Kilometer&lt;/b&gt;&lt;div&gt;&lt;b&gt;Motor&lt;/b&gt;&lt;/div&gt;" style="shape=parallelogram;perimeter=parallelogramPerimeter;whiteSpace=wrap;html=1;fixedSize=1;fillStyle=solid;fillColor=#fff2cc;strokeColor=#d6b656;" parent="1" vertex="1">
          <mxGeometry x="1292" y="1221" width="120" height="60" as="geometry" />
        </mxCell>
        <mxCell id="Jgrr_PVPzE78WpcQoq51-10" value="" style="endArrow=classic;html=1;rounded=0;entryX=0;entryY=0;entryDx=0;entryDy=0;" parent="1" target="Jgrr_PVPzE78WpcQoq51-9" edge="1">
          <mxGeometry width="50" height="50" relative="1" as="geometry">
            <mxPoint x="1276" y="1230" as="sourcePoint" />
            <mxPoint x="1566" y="1241" as="targetPoint" />
          </mxGeometry>
        </mxCell>
        <mxCell id="Jgrr_PVPzE78WpcQoq51-13" style="edgeStyle=orthogonalEdgeStyle;rounded=0;orthogonalLoop=1;jettySize=auto;html=1;" parent="1" edge="1">
          <mxGeometry relative="1" as="geometry">
            <mxPoint x="1347" y="1532" as="targetPoint" />
            <mxPoint x="1347" y="1492" as="sourcePoint" />
          </mxGeometry>
        </mxCell>
        <mxCell id="NFlej0SZO229NZo2Rk2p-2" style="edgeStyle=orthogonalEdgeStyle;rounded=0;orthogonalLoop=1;jettySize=auto;html=1;" edge="1" parent="1" source="Jgrr_PVPzE78WpcQoq51-14" target="NFlej0SZO229NZo2Rk2p-1">
          <mxGeometry relative="1" as="geometry" />
        </mxCell>
        <mxCell id="Jgrr_PVPzE78WpcQoq51-14" value="&lt;b&gt;Keluhan/&lt;/b&gt;&lt;div&gt;&lt;b&gt;Jenis Servis&lt;/b&gt;&lt;/div&gt;" style="shape=parallelogram;perimeter=parallelogramPerimeter;whiteSpace=wrap;html=1;fixedSize=1;fillStyle=solid;fillColor=#fff2cc;strokeColor=#d6b656;" parent="1" vertex="1">
          <mxGeometry x="1287" y="1321" width="120" height="60" as="geometry" />
        </mxCell>
        <mxCell id="Jgrr_PVPzE78WpcQoq51-15" value="" style="endArrow=classic;html=1;rounded=0;entryX=0;entryY=0;entryDx=0;entryDy=0;" parent="1" target="Jgrr_PVPzE78WpcQoq51-14" edge="1">
          <mxGeometry width="50" height="50" relative="1" as="geometry">
            <mxPoint x="1271" y="1330" as="sourcePoint" />
            <mxPoint x="1561" y="1341" as="targetPoint" />
          </mxGeometry>
        </mxCell>
        <mxCell id="AGrqkJ8uaY1ZsFOs0iNM-1" style="edgeStyle=orthogonalEdgeStyle;rounded=0;orthogonalLoop=1;jettySize=auto;html=1;" parent="1" source="8d7XM6qI7MEMpUIOqqIc-1" edge="1">
          <mxGeometry relative="1" as="geometry">
            <mxPoint x="1360" y="209" as="targetPoint" />
            <Array as="points">
              <mxPoint x="1210" y="1590" />
              <mxPoint x="1210" y="209" />
            </Array>
          </mxGeometry>
        </mxCell>
        <mxCell id="8d7XM6qI7MEMpUIOqqIc-1" value="" style="shape=cylinder3;whiteSpace=wrap;html=1;boundedLbl=1;backgroundOutline=1;size=15;fillColor=#ffcc99;strokeColor=#36393d;" parent="1" vertex="1">
          <mxGeometry x="1301.25" y="1532" width="90" height="100" as="geometry" />
        </mxCell>
        <mxCell id="8d7XM6qI7MEMpUIOqqIc-2" value="&lt;b&gt;&lt;font style=&quot;font-size: 14px;&quot;&gt;Database&lt;/font&gt;&lt;/b&gt;" style="text;html=1;align=center;verticalAlign=middle;whiteSpace=wrap;rounded=0;" parent="1" vertex="1">
          <mxGeometry x="1316.25" y="1582" width="60" height="30" as="geometry" />
        </mxCell>
        <mxCell id="8d7XM6qI7MEMpUIOqqIc-8" style="edgeStyle=orthogonalEdgeStyle;rounded=0;orthogonalLoop=1;jettySize=auto;html=1;" parent="1" source="8d7XM6qI7MEMpUIOqqIc-4" edge="1">
          <mxGeometry relative="1" as="geometry">
            <mxPoint x="1870" y="994" as="targetPoint" />
          </mxGeometry>
        </mxCell>
        <mxCell id="y3MMcflpuHaLX4d1jd5e-13" style="edgeStyle=orthogonalEdgeStyle;rounded=0;orthogonalLoop=1;jettySize=auto;html=1;entryX=0.5;entryY=0;entryDx=0;entryDy=0;" parent="1" source="8d7XM6qI7MEMpUIOqqIc-4" edge="1">
          <mxGeometry relative="1" as="geometry">
            <mxPoint x="1655.25" y="1108" as="targetPoint" />
          </mxGeometry>
        </mxCell>
        <mxCell id="8d7XM6qI7MEMpUIOqqIc-4" value="pilihan == 2" style="rhombus;whiteSpace=wrap;html=1;fillColor=#e1d5e7;strokeColor=#9673a6;" parent="1" vertex="1">
          <mxGeometry x="1600" y="945" width="110" height="100" as="geometry" />
        </mxCell>
        <mxCell id="8d7XM6qI7MEMpUIOqqIc-6" value="&lt;b&gt;&lt;font style=&quot;font-size: 13px;&quot;&gt;Yes&lt;/font&gt;&lt;/b&gt;" style="text;html=1;align=center;verticalAlign=middle;whiteSpace=wrap;rounded=0;" parent="1" vertex="1">
          <mxGeometry x="1660" y="1045" width="60" height="30" as="geometry" />
        </mxCell>
        <mxCell id="8d7XM6qI7MEMpUIOqqIc-7" value="&lt;font size=&quot;1&quot; style=&quot;&quot;&gt;&lt;b style=&quot;font-size: 13px;&quot;&gt;No&lt;/b&gt;&lt;/font&gt;" style="text;html=1;align=center;verticalAlign=middle;whiteSpace=wrap;rounded=0;" parent="1" vertex="1">
          <mxGeometry x="1694" y="962" width="60" height="30" as="geometry" />
        </mxCell>
        <mxCell id="lgpNKSEgkT9gfHnc_tbP-5" style="edgeStyle=orthogonalEdgeStyle;rounded=0;orthogonalLoop=1;jettySize=auto;html=1;" parent="1" source="lgpNKSEgkT9gfHnc_tbP-1" edge="1">
          <mxGeometry relative="1" as="geometry">
            <mxPoint x="1360" y="209" as="targetPoint" />
            <Array as="points">
              <mxPoint x="2230" y="209" />
            </Array>
          </mxGeometry>
        </mxCell>
        <mxCell id="lgpNKSEgkT9gfHnc_tbP-1" value="&lt;b&gt;Menu tidak&amp;nbsp;&lt;/b&gt;&lt;div&gt;&lt;b&gt;tersedia&lt;/b&gt;&lt;/div&gt;" style="shape=parallelogram;perimeter=parallelogramPerimeter;whiteSpace=wrap;html=1;fixedSize=1;fillColor=#fff2cc;strokeColor=#d6b656;" parent="1" vertex="1">
          <mxGeometry x="2173" y="819" width="120" height="60" as="geometry" />
        </mxCell>
        <mxCell id="lgpNKSEgkT9gfHnc_tbP-2" value="" style="endArrow=classic;html=1;rounded=0;exitX=1;exitY=1;exitDx=0;exitDy=0;" parent="1" edge="1">
          <mxGeometry width="50" height="50" relative="1" as="geometry">
            <mxPoint x="2276" y="869" as="sourcePoint" />
            <mxPoint x="2314" y="869" as="targetPoint" />
          </mxGeometry>
        </mxCell>
        <mxCell id="y3MMcflpuHaLX4d1jd5e-1" style="edgeStyle=orthogonalEdgeStyle;rounded=0;orthogonalLoop=1;jettySize=auto;html=1;" parent="1" source="y3MMcflpuHaLX4d1jd5e-3" edge="1">
          <mxGeometry relative="1" as="geometry">
            <mxPoint x="2225" y="1106.5" as="targetPoint" />
          </mxGeometry>
        </mxCell>
        <mxCell id="y3MMcflpuHaLX4d1jd5e-3" value="pilihan == 4" style="rhombus;whiteSpace=wrap;html=1;fillColor=#e1d5e7;strokeColor=#9673a6;" parent="1" vertex="1">
          <mxGeometry x="2170" y="941.5" width="110" height="100" as="geometry" />
        </mxCell>
        <mxCell id="y3MMcflpuHaLX4d1jd5e-4" value="&lt;b&gt;&lt;font style=&quot;font-size: 13px;&quot;&gt;Yes&lt;/font&gt;&lt;/b&gt;" style="text;html=1;align=center;verticalAlign=middle;whiteSpace=wrap;rounded=0;" parent="1" vertex="1">
          <mxGeometry x="2220" y="1040.5" width="60" height="30" as="geometry" />
        </mxCell>
        <mxCell id="y3MMcflpuHaLX4d1jd5e-5" value="&lt;font size=&quot;1&quot; style=&quot;&quot;&gt;&lt;b style=&quot;font-size: 13px;&quot;&gt;No&lt;/b&gt;&lt;/font&gt;" style="text;html=1;align=center;verticalAlign=middle;whiteSpace=wrap;rounded=0;" parent="1" vertex="1">
          <mxGeometry x="2220" y="906" width="60" height="30" as="geometry" />
        </mxCell>
        <mxCell id="y3MMcflpuHaLX4d1jd5e-6" value="" style="shape=offPageConnector;whiteSpace=wrap;html=1;fillColor=#b1ddf0;strokeColor=#10739e;" parent="1" vertex="1">
          <mxGeometry x="2185" y="1106.5" width="80" height="80" as="geometry" />
        </mxCell>
        <mxCell id="y3MMcflpuHaLX4d1jd5e-7" value="&lt;b&gt;USER&lt;/b&gt;&lt;div&gt;&lt;b&gt;OUT&lt;/b&gt;&lt;/div&gt;" style="text;html=1;align=center;verticalAlign=middle;whiteSpace=wrap;rounded=0;" parent="1" vertex="1">
          <mxGeometry x="2195" y="1131.5" width="60" height="30" as="geometry" />
        </mxCell>
        <mxCell id="y3MMcflpuHaLX4d1jd5e-15" style="edgeStyle=orthogonalEdgeStyle;rounded=0;orthogonalLoop=1;jettySize=auto;html=1;entryX=0.435;entryY=0.957;entryDx=0;entryDy=0;entryPerimeter=0;" parent="1" source="y3MMcflpuHaLX4d1jd5e-3" target="lgpNKSEgkT9gfHnc_tbP-1" edge="1">
          <mxGeometry relative="1" as="geometry" />
        </mxCell>
        <mxCell id="y3MMcflpuHaLX4d1jd5e-17" style="edgeStyle=orthogonalEdgeStyle;rounded=0;orthogonalLoop=1;jettySize=auto;html=1;entryX=0.5;entryY=0;entryDx=0;entryDy=0;" parent="1" source="y3MMcflpuHaLX4d1jd5e-18" edge="1">
          <mxGeometry relative="1" as="geometry">
            <mxPoint x="1930" y="1105.5" as="targetPoint" />
          </mxGeometry>
        </mxCell>
        <mxCell id="y3MMcflpuHaLX4d1jd5e-22" style="edgeStyle=orthogonalEdgeStyle;rounded=0;orthogonalLoop=1;jettySize=auto;html=1;" parent="1" source="y3MMcflpuHaLX4d1jd5e-18" target="y3MMcflpuHaLX4d1jd5e-3" edge="1">
          <mxGeometry relative="1" as="geometry" />
        </mxCell>
        <mxCell id="y3MMcflpuHaLX4d1jd5e-18" value="pilihan == 3" style="rhombus;whiteSpace=wrap;html=1;fillColor=#e1d5e7;strokeColor=#9673a6;" parent="1" vertex="1">
          <mxGeometry x="1875" y="941.5" width="110" height="100" as="geometry" />
        </mxCell>
        <mxCell id="y3MMcflpuHaLX4d1jd5e-19" value="&lt;b&gt;&lt;font style=&quot;font-size: 13px;&quot;&gt;Yes&lt;/font&gt;&lt;/b&gt;" style="text;html=1;align=center;verticalAlign=middle;whiteSpace=wrap;rounded=0;" parent="1" vertex="1">
          <mxGeometry x="1935" y="1042.5" width="60" height="30" as="geometry" />
        </mxCell>
        <mxCell id="y3MMcflpuHaLX4d1jd5e-20" value="&lt;font size=&quot;1&quot; style=&quot;&quot;&gt;&lt;b style=&quot;font-size: 13px;&quot;&gt;No&lt;/b&gt;&lt;/font&gt;" style="text;html=1;align=center;verticalAlign=middle;whiteSpace=wrap;rounded=0;" parent="1" vertex="1">
          <mxGeometry x="1969" y="959.5" width="60" height="30" as="geometry" />
        </mxCell>
        <mxCell id="y3MMcflpuHaLX4d1jd5e-27" style="edgeStyle=orthogonalEdgeStyle;rounded=0;orthogonalLoop=1;jettySize=auto;html=1;entryX=0.5;entryY=0;entryDx=0;entryDy=0;" parent="1" source="y3MMcflpuHaLX4d1jd5e-23" target="y3MMcflpuHaLX4d1jd5e-25" edge="1">
          <mxGeometry relative="1" as="geometry" />
        </mxCell>
        <mxCell id="y3MMcflpuHaLX4d1jd5e-23" value="" style="shape=cylinder3;whiteSpace=wrap;html=1;boundedLbl=1;backgroundOutline=1;size=15;fillColor=#ffcc99;strokeColor=#36393d;" parent="1" vertex="1">
          <mxGeometry x="1885" y="1108" width="90" height="100" as="geometry" />
        </mxCell>
        <mxCell id="y3MMcflpuHaLX4d1jd5e-24" value="&lt;b&gt;&lt;font style=&quot;font-size: 14px;&quot;&gt;Database&lt;/font&gt;&lt;/b&gt;" style="text;html=1;align=center;verticalAlign=middle;whiteSpace=wrap;rounded=0;" parent="1" vertex="1">
          <mxGeometry x="1900" y="1158" width="60" height="30" as="geometry" />
        </mxCell>
        <mxCell id="-GI3Qec5B5_Wr3jN0LJC-1" style="edgeStyle=orthogonalEdgeStyle;rounded=0;orthogonalLoop=1;jettySize=auto;html=1;" parent="1" source="y3MMcflpuHaLX4d1jd5e-25" edge="1">
          <mxGeometry relative="1" as="geometry">
            <mxPoint x="1780" y="210" as="targetPoint" />
          </mxGeometry>
        </mxCell>
        <mxCell id="y3MMcflpuHaLX4d1jd5e-25" value="&lt;div style=&quot;font-size: 14px;&quot;&gt;Histori Service&lt;/div&gt;" style="shape=parallelogram;perimeter=parallelogramPerimeter;whiteSpace=wrap;html=1;fixedSize=1;fillColor=#dae8fc;strokeColor=#6c8ebf;align=center;" parent="1" vertex="1">
          <mxGeometry x="1860.75" y="1269" width="140" height="90" as="geometry" />
        </mxCell>
        <mxCell id="y3MMcflpuHaLX4d1jd5e-26" value="" style="endArrow=classic;html=1;rounded=0;exitX=1;exitY=1;exitDx=0;exitDy=0;" parent="1" source="y3MMcflpuHaLX4d1jd5e-25" edge="1">
          <mxGeometry width="50" height="50" relative="1" as="geometry">
            <mxPoint x="2154.5" y="1479" as="sourcePoint" />
            <mxPoint x="2018" y="1348" as="targetPoint" />
          </mxGeometry>
        </mxCell>
        <mxCell id="cmQ8oOClTgwEnL59n0cI-1" value="" style="endArrow=classic;html=1;rounded=0;exitX=1;exitY=1;exitDx=0;exitDy=0;" parent="1" edge="1">
          <mxGeometry width="50" height="50" relative="1" as="geometry">
            <mxPoint x="1444" y="763" as="sourcePoint" />
            <mxPoint x="1476.25" y="762" as="targetPoint" />
          </mxGeometry>
        </mxCell>
        <mxCell id="OoZ3zTgZs8OBXOV9yrAH-1" value="&lt;b&gt;ID Servis&lt;/b&gt;" style="shape=parallelogram;perimeter=parallelogramPerimeter;whiteSpace=wrap;html=1;fixedSize=1;fillStyle=solid;fillColor=#fff2cc;strokeColor=#d6b656;" parent="1" vertex="1">
          <mxGeometry x="1600" y="1110" width="120" height="60" as="geometry" />
        </mxCell>
        <mxCell id="OoZ3zTgZs8OBXOV9yrAH-2" value="" style="endArrow=classic;html=1;rounded=0;entryX=0;entryY=0;entryDx=0;entryDy=0;" parent="1" target="OoZ3zTgZs8OBXOV9yrAH-1" edge="1">
          <mxGeometry width="50" height="50" relative="1" as="geometry">
            <mxPoint x="1585" y="1119" as="sourcePoint" />
            <mxPoint x="1875" y="1130" as="targetPoint" />
          </mxGeometry>
        </mxCell>
        <mxCell id="P2nYSWYMqkV4aNWuYCQr-1" style="edgeStyle=orthogonalEdgeStyle;rounded=0;orthogonalLoop=1;jettySize=auto;html=1;" parent="1" edge="1">
          <mxGeometry relative="1" as="geometry">
            <mxPoint x="1653" y="1236" as="targetPoint" />
            <mxPoint x="1652.5" y="1170" as="sourcePoint" />
          </mxGeometry>
        </mxCell>
        <mxCell id="P2nYSWYMqkV4aNWuYCQr-3" style="edgeStyle=orthogonalEdgeStyle;rounded=0;orthogonalLoop=1;jettySize=auto;html=1;" parent="1" source="P2nYSWYMqkV4aNWuYCQr-4" edge="1">
          <mxGeometry relative="1" as="geometry">
            <mxPoint x="1654.9999999999998" y="1369.9999999999998" as="targetPoint" />
          </mxGeometry>
        </mxCell>
        <mxCell id="P2nYSWYMqkV4aNWuYCQr-4" value="&lt;b&gt;Keluhan Baru&lt;/b&gt;" style="shape=parallelogram;perimeter=parallelogramPerimeter;whiteSpace=wrap;html=1;fixedSize=1;fillStyle=solid;fillColor=#fff2cc;strokeColor=#d6b656;" parent="1" vertex="1">
          <mxGeometry x="1595" y="1237" width="120" height="60" as="geometry" />
        </mxCell>
        <mxCell id="P2nYSWYMqkV4aNWuYCQr-5" value="" style="endArrow=classic;html=1;rounded=0;entryX=0;entryY=0;entryDx=0;entryDy=0;" parent="1" target="P2nYSWYMqkV4aNWuYCQr-4" edge="1">
          <mxGeometry width="50" height="50" relative="1" as="geometry">
            <mxPoint x="1580" y="1246" as="sourcePoint" />
            <mxPoint x="1870" y="1257" as="targetPoint" />
          </mxGeometry>
        </mxCell>
        <mxCell id="P2nYSWYMqkV4aNWuYCQr-7" style="edgeStyle=orthogonalEdgeStyle;rounded=0;orthogonalLoop=1;jettySize=auto;html=1;" parent="1" source="P2nYSWYMqkV4aNWuYCQr-6" edge="1">
          <mxGeometry relative="1" as="geometry">
            <mxPoint x="1520" y="210" as="targetPoint" />
          </mxGeometry>
        </mxCell>
        <mxCell id="P2nYSWYMqkV4aNWuYCQr-6" value="&lt;b&gt;Keluahan = Keluhan&lt;/b&gt;&lt;b style=&quot;background-color: initial;&quot;&gt;&amp;nbsp;Baru&lt;/b&gt;" style="rounded=0;whiteSpace=wrap;html=1;fillColor=#fad9d5;strokeColor=#ae4132;" parent="1" vertex="1">
          <mxGeometry x="1580" y="1370" width="150" height="80" as="geometry" />
        </mxCell>
        <mxCell id="NFlej0SZO229NZo2Rk2p-1" value="&lt;b&gt;Store&lt;/b&gt;&lt;div&gt;Nama motor, kilometer dan keluhan&lt;/div&gt;" style="rounded=0;whiteSpace=wrap;html=1;fillColor=#fad9d5;strokeColor=#ae4132;" vertex="1" parent="1">
          <mxGeometry x="1272" y="1410" width="150" height="80" as="geometry" />
        </mxCell>
      </root>
    </mxGraphModel>
  </diagram>
  <diagram id="DoOhdrhWN74vjGiqVflH" name="admin">
    <mxGraphModel dx="1510" dy="800" grid="1" gridSize="10" guides="1" tooltips="1" connect="1" arrows="1" fold="1" page="1" pageScale="1" pageWidth="1169" pageHeight="1654" math="0" shadow="0">
      <root>
        <mxCell id="0" />
        <mxCell id="1" parent="0" />
        <mxCell id="jyCZyp7TY-OC80Zj3-c0-1" value="" style="shape=offPageConnector;whiteSpace=wrap;html=1;fillColor=#bac8d3;strokeColor=#23445d;" parent="1" vertex="1">
          <mxGeometry x="130" y="40" width="80" height="80" as="geometry" />
        </mxCell>
        <mxCell id="jyCZyp7TY-OC80Zj3-c0-2" value="&lt;b&gt;ADMIN&lt;/b&gt;" style="text;html=1;align=center;verticalAlign=middle;whiteSpace=wrap;rounded=0;" parent="1" vertex="1">
          <mxGeometry x="140" y="60" width="60" height="30" as="geometry" />
        </mxCell>
        <mxCell id="-kaBlzvMlBjsN3U7NKlo-1" style="edgeStyle=orthogonalEdgeStyle;rounded=0;orthogonalLoop=1;jettySize=auto;html=1;" parent="1" edge="1">
          <mxGeometry relative="1" as="geometry">
            <mxPoint x="169" y="176" as="targetPoint" />
            <mxPoint x="169" y="121" as="sourcePoint" />
          </mxGeometry>
        </mxCell>
        <mxCell id="-kaBlzvMlBjsN3U7NKlo-2" style="edgeStyle=orthogonalEdgeStyle;rounded=0;orthogonalLoop=1;jettySize=auto;html=1;" parent="1" source="-kaBlzvMlBjsN3U7NKlo-3" edge="1">
          <mxGeometry relative="1" as="geometry">
            <mxPoint x="168.25" y="450" as="targetPoint" />
          </mxGeometry>
        </mxCell>
        <mxCell id="-kaBlzvMlBjsN3U7NKlo-3" value="" style="shape=cylinder3;whiteSpace=wrap;html=1;boundedLbl=1;backgroundOutline=1;size=15;fillColor=#ffcc99;strokeColor=#36393d;" parent="1" vertex="1">
          <mxGeometry x="124.25" y="300" width="90" height="100" as="geometry" />
        </mxCell>
        <mxCell id="-kaBlzvMlBjsN3U7NKlo-4" value="&lt;b&gt;&lt;font style=&quot;font-size: 14px;&quot;&gt;Database&lt;/font&gt;&lt;/b&gt;" style="text;html=1;align=center;verticalAlign=middle;whiteSpace=wrap;rounded=0;" parent="1" vertex="1">
          <mxGeometry x="138.25" y="350" width="60" height="30" as="geometry" />
        </mxCell>
        <mxCell id="-kaBlzvMlBjsN3U7NKlo-5" style="edgeStyle=orthogonalEdgeStyle;rounded=0;orthogonalLoop=1;jettySize=auto;html=1;" parent="1" source="-kaBlzvMlBjsN3U7NKlo-6" edge="1">
          <mxGeometry relative="1" as="geometry">
            <mxPoint x="168.25" y="590" as="targetPoint" />
          </mxGeometry>
        </mxCell>
        <mxCell id="-kaBlzvMlBjsN3U7NKlo-6" value="&lt;div style=&quot;font-size: 14px;&quot;&gt;Menampilkan motor yang&lt;/div&gt;&lt;div style=&quot;font-size: 14px;&quot;&gt;di servis User&lt;/div&gt;" style="shape=parallelogram;perimeter=parallelogramPerimeter;whiteSpace=wrap;html=1;fixedSize=1;fillColor=#dae8fc;strokeColor=#6c8ebf;align=center;" parent="1" vertex="1">
          <mxGeometry x="72" y="450" width="192.5" height="90" as="geometry" />
        </mxCell>
        <mxCell id="-kaBlzvMlBjsN3U7NKlo-7" value="" style="endArrow=classic;html=1;rounded=0;exitX=1;exitY=1;exitDx=0;exitDy=0;" parent="1" source="-kaBlzvMlBjsN3U7NKlo-6" edge="1">
          <mxGeometry width="50" height="50" relative="1" as="geometry">
            <mxPoint x="405.75" y="660" as="sourcePoint" />
            <mxPoint x="278.25" y="531" as="targetPoint" />
          </mxGeometry>
        </mxCell>
        <mxCell id="-kaBlzvMlBjsN3U7NKlo-8" value="&lt;b&gt;Pilih menu :&lt;/b&gt;" style="shape=parallelogram;perimeter=parallelogramPerimeter;whiteSpace=wrap;html=1;fixedSize=1;fillStyle=solid;fillColor=#fff2cc;strokeColor=#d6b656;" parent="1" vertex="1">
          <mxGeometry x="103.25" y="730" width="120" height="60" as="geometry" />
        </mxCell>
        <mxCell id="-kaBlzvMlBjsN3U7NKlo-9" value="" style="endArrow=classic;html=1;rounded=0;" parent="1" edge="1">
          <mxGeometry width="50" height="50" relative="1" as="geometry">
            <mxPoint x="88.25" y="740" as="sourcePoint" />
            <mxPoint x="118.25" y="740" as="targetPoint" />
          </mxGeometry>
        </mxCell>
        <mxCell id="-kaBlzvMlBjsN3U7NKlo-11" value="&lt;blockquote style=&quot;margin: 0 0 0 40px; border: none; padding: 0px;&quot;&gt;&lt;br&gt;&lt;/blockquote&gt;" style="shape=parallelogram;perimeter=parallelogramPerimeter;whiteSpace=wrap;html=1;fixedSize=1;fillColor=#dae8fc;strokeColor=#6c8ebf;align=left;" parent="1" vertex="1">
          <mxGeometry x="53" y="570" width="240" height="130" as="geometry" />
        </mxCell>
        <mxCell id="-kaBlzvMlBjsN3U7NKlo-12" value="&lt;blockquote style=&quot;margin: 0 0 0 40px; border: none; padding: 0px;&quot;&gt;&lt;b style=&quot;background-color: initial;&quot;&gt;&lt;font style=&quot;font-size: 13px;&quot;&gt;Menu User:&lt;/font&gt;&lt;/b&gt;&lt;/blockquote&gt;&lt;blockquote style=&quot;margin: 0 0 0 40px; border: none; padding: 0px;&quot;&gt;&lt;b style=&quot;background-color: initial; font-size: 13px;&quot;&gt;1. &lt;/b&gt;&lt;span style=&quot;background-color: initial; font-size: 13px;&quot;&gt;Update Status&lt;/span&gt;&lt;/blockquote&gt;&lt;blockquote style=&quot;margin: 0 0 0 40px; border: none; padding: 0px;&quot;&gt;&lt;span style=&quot;font-size: 13px;&quot;&gt;&lt;b&gt;2. &lt;/b&gt;Delete Data&lt;/span&gt;&lt;/blockquote&gt;&lt;blockquote style=&quot;margin: 0 0 0 40px; border: none; padding: 0px;&quot;&gt;&lt;span style=&quot;font-size: 13px;&quot;&gt;&lt;b&gt;3. &lt;/b&gt;Menu Sparepart&lt;br&gt;&lt;/span&gt;&lt;div style=&quot;&quot;&gt;&lt;span style=&quot;font-size: 13px;&quot;&gt;&lt;b style=&quot;background-color: initial;&quot;&gt;4.&amp;nbsp;&lt;/b&gt;Exir&lt;/span&gt;&lt;/div&gt;&lt;/blockquote&gt;" style="text;html=1;align=left;verticalAlign=middle;whiteSpace=wrap;rounded=0;" parent="1" vertex="1">
          <mxGeometry x="99" y="595" width="130" height="80" as="geometry" />
        </mxCell>
        <mxCell id="-kaBlzvMlBjsN3U7NKlo-14" value="&lt;font size=&quot;1&quot;&gt;&lt;b style=&quot;font-size: 12px;&quot;&gt;MENU_ADMIN&lt;/b&gt;&lt;/font&gt;" style="shape=process;whiteSpace=wrap;html=1;backgroundOutline=1;fillColor=#d5e8d4;strokeColor=#82b366;gradientColor=#97d077;" parent="1" vertex="1">
          <mxGeometry x="109" y="176" width="120" height="60" as="geometry" />
        </mxCell>
        <mxCell id="-kaBlzvMlBjsN3U7NKlo-15" style="edgeStyle=orthogonalEdgeStyle;rounded=0;orthogonalLoop=1;jettySize=auto;html=1;entryX=0.5;entryY=0;entryDx=0;entryDy=0;entryPerimeter=0;" parent="1" source="-kaBlzvMlBjsN3U7NKlo-14" target="-kaBlzvMlBjsN3U7NKlo-3" edge="1">
          <mxGeometry relative="1" as="geometry" />
        </mxCell>
        <mxCell id="tIdLxzSFmMruNyFhSA0Y-1" style="edgeStyle=orthogonalEdgeStyle;rounded=0;orthogonalLoop=1;jettySize=auto;html=1;" parent="1" edge="1">
          <mxGeometry relative="1" as="geometry">
            <mxPoint x="165" y="870" as="targetPoint" />
            <mxPoint x="164.75" y="790" as="sourcePoint" />
          </mxGeometry>
        </mxCell>
        <mxCell id="tIdLxzSFmMruNyFhSA0Y-2" style="edgeStyle=orthogonalEdgeStyle;rounded=0;orthogonalLoop=1;jettySize=auto;html=1;" parent="1" source="tIdLxzSFmMruNyFhSA0Y-4" edge="1">
          <mxGeometry relative="1" as="geometry">
            <mxPoint x="390" y="920" as="targetPoint" />
          </mxGeometry>
        </mxCell>
        <mxCell id="tIdLxzSFmMruNyFhSA0Y-3" style="edgeStyle=orthogonalEdgeStyle;rounded=0;orthogonalLoop=1;jettySize=auto;html=1;entryX=0.5;entryY=0;entryDx=0;entryDy=0;" parent="1" target="tIdLxzSFmMruNyFhSA0Y-7" edge="1">
          <mxGeometry relative="1" as="geometry">
            <mxPoint x="165" y="1040" as="targetPoint" />
            <mxPoint x="164.99999999999977" y="969.9999999999995" as="sourcePoint" />
          </mxGeometry>
        </mxCell>
        <mxCell id="tIdLxzSFmMruNyFhSA0Y-4" value="pilihan == 1" style="rhombus;whiteSpace=wrap;html=1;fillColor=#e1d5e7;strokeColor=#9673a6;" parent="1" vertex="1">
          <mxGeometry x="110" y="870" width="110" height="100" as="geometry" />
        </mxCell>
        <mxCell id="tIdLxzSFmMruNyFhSA0Y-5" value="&lt;b&gt;&lt;font style=&quot;font-size: 13px;&quot;&gt;Yes&lt;/font&gt;&lt;/b&gt;" style="text;html=1;align=center;verticalAlign=middle;whiteSpace=wrap;rounded=0;" parent="1" vertex="1">
          <mxGeometry x="150" y="972" width="60" height="30" as="geometry" />
        </mxCell>
        <mxCell id="tIdLxzSFmMruNyFhSA0Y-6" value="&lt;font size=&quot;1&quot; style=&quot;&quot;&gt;&lt;b style=&quot;font-size: 13px;&quot;&gt;No&lt;/b&gt;&lt;/font&gt;" style="text;html=1;align=center;verticalAlign=middle;whiteSpace=wrap;rounded=0;" parent="1" vertex="1">
          <mxGeometry x="210" y="890" width="60" height="30" as="geometry" />
        </mxCell>
        <mxCell id="tBxbACmf488peSE2S9C6-4" style="edgeStyle=orthogonalEdgeStyle;rounded=0;orthogonalLoop=1;jettySize=auto;html=1;entryX=0.5;entryY=0;entryDx=0;entryDy=0;" parent="1" source="tIdLxzSFmMruNyFhSA0Y-7" target="tBxbACmf488peSE2S9C6-1" edge="1">
          <mxGeometry relative="1" as="geometry" />
        </mxCell>
        <mxCell id="tIdLxzSFmMruNyFhSA0Y-7" value="&lt;b&gt;ID Servis&lt;/b&gt;" style="shape=parallelogram;perimeter=parallelogramPerimeter;whiteSpace=wrap;html=1;fixedSize=1;fillStyle=solid;fillColor=#fff2cc;strokeColor=#d6b656;" parent="1" vertex="1">
          <mxGeometry x="105" y="1046" width="120" height="60" as="geometry" />
        </mxCell>
        <mxCell id="tIdLxzSFmMruNyFhSA0Y-8" value="" style="endArrow=classic;html=1;rounded=0;entryX=0;entryY=0;entryDx=0;entryDy=0;" parent="1" target="tIdLxzSFmMruNyFhSA0Y-7" edge="1">
          <mxGeometry width="50" height="50" relative="1" as="geometry">
            <mxPoint x="90" y="1055" as="sourcePoint" />
            <mxPoint x="380" y="1066" as="targetPoint" />
          </mxGeometry>
        </mxCell>
        <mxCell id="tIdLxzSFmMruNyFhSA0Y-9" style="edgeStyle=orthogonalEdgeStyle;rounded=0;orthogonalLoop=1;jettySize=auto;html=1;" parent="1" source="tIdLxzSFmMruNyFhSA0Y-10" edge="1">
          <mxGeometry relative="1" as="geometry">
            <mxPoint x="875" y="1035" as="targetPoint" />
          </mxGeometry>
        </mxCell>
        <mxCell id="Zo3rFmVJwrT7sHKHypRL-1" style="edgeStyle=orthogonalEdgeStyle;rounded=0;orthogonalLoop=1;jettySize=auto;html=1;" parent="1" source="tIdLxzSFmMruNyFhSA0Y-10" edge="1">
          <mxGeometry relative="1" as="geometry">
            <mxPoint x="1030" y="920" as="targetPoint" />
          </mxGeometry>
        </mxCell>
        <mxCell id="tIdLxzSFmMruNyFhSA0Y-10" value="pilihan == 4" style="rhombus;whiteSpace=wrap;html=1;fillColor=#e1d5e7;strokeColor=#9673a6;" parent="1" vertex="1">
          <mxGeometry x="820" y="870" width="110" height="100" as="geometry" />
        </mxCell>
        <mxCell id="tIdLxzSFmMruNyFhSA0Y-11" value="&lt;b&gt;&lt;font style=&quot;font-size: 13px;&quot;&gt;Yes&lt;/font&gt;&lt;/b&gt;" style="text;html=1;align=center;verticalAlign=middle;whiteSpace=wrap;rounded=0;" parent="1" vertex="1">
          <mxGeometry x="870" y="969" width="60" height="30" as="geometry" />
        </mxCell>
        <mxCell id="tIdLxzSFmMruNyFhSA0Y-12" value="&lt;font size=&quot;1&quot; style=&quot;&quot;&gt;&lt;b style=&quot;font-size: 13px;&quot;&gt;No&lt;/b&gt;&lt;/font&gt;" style="text;html=1;align=center;verticalAlign=middle;whiteSpace=wrap;rounded=0;" parent="1" vertex="1">
          <mxGeometry x="920" y="889" width="60" height="30" as="geometry" />
        </mxCell>
        <mxCell id="tIdLxzSFmMruNyFhSA0Y-13" value="" style="shape=offPageConnector;whiteSpace=wrap;html=1;fillColor=#b1ddf0;strokeColor=#10739e;" parent="1" vertex="1">
          <mxGeometry x="835" y="1035" width="80" height="80" as="geometry" />
        </mxCell>
        <mxCell id="tIdLxzSFmMruNyFhSA0Y-14" value="&lt;b&gt;ADMIN&lt;/b&gt;&lt;br&gt;&lt;div&gt;&lt;b&gt;OUT&lt;/b&gt;&lt;/div&gt;" style="text;html=1;align=center;verticalAlign=middle;whiteSpace=wrap;rounded=0;" parent="1" vertex="1">
          <mxGeometry x="845" y="1060" width="60" height="30" as="geometry" />
        </mxCell>
        <mxCell id="Rpid0hSL9oDNLBRW-pHH-1" style="edgeStyle=orthogonalEdgeStyle;rounded=0;orthogonalLoop=1;jettySize=auto;html=1;" parent="1" edge="1">
          <mxGeometry relative="1" as="geometry">
            <mxPoint x="163.25" y="1270" as="targetPoint" />
            <mxPoint x="163.25" y="1220" as="sourcePoint" />
          </mxGeometry>
        </mxCell>
        <mxCell id="tBxbACmf488peSE2S9C6-5" style="edgeStyle=orthogonalEdgeStyle;rounded=0;orthogonalLoop=1;jettySize=auto;html=1;" parent="1" source="Rpid0hSL9oDNLBRW-pHH-2" edge="1">
          <mxGeometry relative="1" as="geometry">
            <mxPoint x="170" y="140" as="targetPoint" />
            <Array as="points">
              <mxPoint x="163" y="1530" />
              <mxPoint x="30" y="1530" />
              <mxPoint x="30" y="140" />
            </Array>
          </mxGeometry>
        </mxCell>
        <mxCell id="Rpid0hSL9oDNLBRW-pHH-2" value="&lt;b&gt;Status Servis = Status&lt;/b&gt;&lt;div&gt;&lt;b&gt;Servis Baru&lt;/b&gt;&lt;/div&gt;" style="rounded=0;whiteSpace=wrap;html=1;fillColor=#fad9d5;strokeColor=#ae4132;" parent="1" vertex="1">
          <mxGeometry x="88.25" y="1410" width="150" height="80" as="geometry" />
        </mxCell>
        <mxCell id="TgghtzEoYAE_n7DzvgfU-2" style="edgeStyle=orthogonalEdgeStyle;rounded=0;orthogonalLoop=1;jettySize=auto;html=1;entryX=0.5;entryY=0;entryDx=0;entryDy=0;" parent="1" edge="1">
          <mxGeometry relative="1" as="geometry">
            <mxPoint x="446.25" y="1047" as="targetPoint" />
            <mxPoint x="446.2499999999998" y="970.9999999999995" as="sourcePoint" />
          </mxGeometry>
        </mxCell>
        <mxCell id="0x2kms6PuY1hgF0NJfXH-11" style="edgeStyle=orthogonalEdgeStyle;rounded=0;orthogonalLoop=1;jettySize=auto;html=1;entryX=0;entryY=0.5;entryDx=0;entryDy=0;" parent="1" source="TgghtzEoYAE_n7DzvgfU-3" target="0x2kms6PuY1hgF0NJfXH-6" edge="1">
          <mxGeometry relative="1" as="geometry" />
        </mxCell>
        <mxCell id="TgghtzEoYAE_n7DzvgfU-3" value="pilihan == 2" style="rhombus;whiteSpace=wrap;html=1;fillColor=#e1d5e7;strokeColor=#9673a6;" parent="1" vertex="1">
          <mxGeometry x="391.25" y="870" width="110" height="100" as="geometry" />
        </mxCell>
        <mxCell id="TgghtzEoYAE_n7DzvgfU-4" value="&lt;b&gt;&lt;font style=&quot;font-size: 13px;&quot;&gt;Yes&lt;/font&gt;&lt;/b&gt;" style="text;html=1;align=center;verticalAlign=middle;whiteSpace=wrap;rounded=0;" parent="1" vertex="1">
          <mxGeometry x="431.25" y="972" width="60" height="30" as="geometry" />
        </mxCell>
        <mxCell id="TgghtzEoYAE_n7DzvgfU-5" value="&lt;font size=&quot;1&quot; style=&quot;&quot;&gt;&lt;b style=&quot;font-size: 13px;&quot;&gt;No&lt;/b&gt;&lt;/font&gt;" style="text;html=1;align=center;verticalAlign=middle;whiteSpace=wrap;rounded=0;" parent="1" vertex="1">
          <mxGeometry x="491.25" y="889" width="60" height="30" as="geometry" />
        </mxCell>
        <mxCell id="TgghtzEoYAE_n7DzvgfU-6" value="&lt;b&gt;ID Servis&lt;/b&gt;" style="shape=parallelogram;perimeter=parallelogramPerimeter;whiteSpace=wrap;html=1;fixedSize=1;fillStyle=solid;fillColor=#fff2cc;strokeColor=#d6b656;" parent="1" vertex="1">
          <mxGeometry x="386.25" y="1046" width="120" height="60" as="geometry" />
        </mxCell>
        <mxCell id="TgghtzEoYAE_n7DzvgfU-7" value="" style="endArrow=classic;html=1;rounded=0;entryX=0;entryY=0;entryDx=0;entryDy=0;" parent="1" target="TgghtzEoYAE_n7DzvgfU-6" edge="1">
          <mxGeometry width="50" height="50" relative="1" as="geometry">
            <mxPoint x="371.25" y="1055" as="sourcePoint" />
            <mxPoint x="661.25" y="1066" as="targetPoint" />
          </mxGeometry>
        </mxCell>
        <mxCell id="TgghtzEoYAE_n7DzvgfU-8" style="edgeStyle=orthogonalEdgeStyle;rounded=0;orthogonalLoop=1;jettySize=auto;html=1;" parent="1" edge="1">
          <mxGeometry relative="1" as="geometry">
            <mxPoint x="446.25" y="1156" as="targetPoint" />
            <mxPoint x="446.25" y="1106" as="sourcePoint" />
          </mxGeometry>
        </mxCell>
        <mxCell id="tBxbACmf488peSE2S9C6-7" style="edgeStyle=orthogonalEdgeStyle;rounded=0;orthogonalLoop=1;jettySize=auto;html=1;" parent="1" source="TgghtzEoYAE_n7DzvgfU-9" edge="1">
          <mxGeometry relative="1" as="geometry">
            <mxPoint x="120" y="1530" as="targetPoint" />
            <Array as="points">
              <mxPoint x="446" y="1530" />
              <mxPoint x="120" y="1530" />
            </Array>
          </mxGeometry>
        </mxCell>
        <mxCell id="TgghtzEoYAE_n7DzvgfU-9" value="&lt;b&gt;Hapus Data Sesuai ID&lt;/b&gt;&lt;div&gt;&lt;b&gt;Servis yang Diinputkan&lt;/b&gt;&lt;/div&gt;" style="rounded=0;whiteSpace=wrap;html=1;fillColor=#fad9d5;strokeColor=#ae4132;" parent="1" vertex="1">
          <mxGeometry x="371.25" y="1156" width="150" height="80" as="geometry" />
        </mxCell>
        <mxCell id="0x2kms6PuY1hgF0NJfXH-13" style="edgeStyle=orthogonalEdgeStyle;rounded=0;orthogonalLoop=1;jettySize=auto;html=1;" parent="1" source="Cd8wUMhECUz39UEK7Fxe-1" edge="1">
          <mxGeometry relative="1" as="geometry">
            <mxPoint x="170" y="140" as="targetPoint" />
            <Array as="points">
              <mxPoint x="1080" y="140" />
            </Array>
          </mxGeometry>
        </mxCell>
        <mxCell id="Cd8wUMhECUz39UEK7Fxe-1" value="&lt;b&gt;Menu tidak&amp;nbsp;&lt;/b&gt;&lt;div&gt;&lt;b&gt;tersedia&lt;/b&gt;&lt;/div&gt;" style="shape=parallelogram;perimeter=parallelogramPerimeter;whiteSpace=wrap;html=1;fixedSize=1;fillColor=#fff2cc;strokeColor=#d6b656;" parent="1" vertex="1">
          <mxGeometry x="1020" y="890" width="120" height="60" as="geometry" />
        </mxCell>
        <mxCell id="Cd8wUMhECUz39UEK7Fxe-2" value="" style="endArrow=classic;html=1;rounded=0;exitX=1;exitY=1;exitDx=0;exitDy=0;" parent="1" edge="1">
          <mxGeometry width="50" height="50" relative="1" as="geometry">
            <mxPoint x="1123" y="940" as="sourcePoint" />
            <mxPoint x="1161" y="940" as="targetPoint" />
          </mxGeometry>
        </mxCell>
        <mxCell id="tBxbACmf488peSE2S9C6-1" value="&lt;b&gt;Status Servis&amp;nbsp;&lt;/b&gt;&lt;div&gt;&lt;b&gt;Baru&lt;/b&gt;&lt;/div&gt;" style="shape=parallelogram;perimeter=parallelogramPerimeter;whiteSpace=wrap;html=1;fixedSize=1;fillStyle=solid;fillColor=#fff2cc;strokeColor=#d6b656;" parent="1" vertex="1">
          <mxGeometry x="105" y="1156" width="120" height="60" as="geometry" />
        </mxCell>
        <mxCell id="tBxbACmf488peSE2S9C6-3" value="" style="endArrow=classic;html=1;rounded=0;entryX=0;entryY=0;entryDx=0;entryDy=0;" parent="1" edge="1">
          <mxGeometry width="50" height="50" relative="1" as="geometry">
            <mxPoint x="87" y="1165" as="sourcePoint" />
            <mxPoint x="119" y="1165" as="targetPoint" />
          </mxGeometry>
        </mxCell>
        <mxCell id="0x2kms6PuY1hgF0NJfXH-1" style="edgeStyle=orthogonalEdgeStyle;rounded=0;orthogonalLoop=1;jettySize=auto;html=1;entryX=0.576;entryY=0.01;entryDx=0;entryDy=0;entryPerimeter=0;" parent="1" source="-kaBlzvMlBjsN3U7NKlo-11" target="-kaBlzvMlBjsN3U7NKlo-8" edge="1">
          <mxGeometry relative="1" as="geometry" />
        </mxCell>
        <mxCell id="0x2kms6PuY1hgF0NJfXH-2" value="" style="endArrow=classic;html=1;rounded=0;exitX=1;exitY=1;exitDx=0;exitDy=0;" parent="1" source="-kaBlzvMlBjsN3U7NKlo-11" edge="1">
          <mxGeometry width="50" height="50" relative="1" as="geometry">
            <mxPoint x="510" y="720" as="sourcePoint" />
            <mxPoint x="310" y="690" as="targetPoint" />
          </mxGeometry>
        </mxCell>
        <mxCell id="0x2kms6PuY1hgF0NJfXH-4" style="edgeStyle=orthogonalEdgeStyle;rounded=0;orthogonalLoop=1;jettySize=auto;html=1;" parent="1" source="0x2kms6PuY1hgF0NJfXH-6" edge="1">
          <mxGeometry relative="1" as="geometry">
            <mxPoint x="675" y="1035" as="targetPoint" />
          </mxGeometry>
        </mxCell>
        <mxCell id="0x2kms6PuY1hgF0NJfXH-12" style="edgeStyle=orthogonalEdgeStyle;rounded=0;orthogonalLoop=1;jettySize=auto;html=1;entryX=0;entryY=0.5;entryDx=0;entryDy=0;" parent="1" source="0x2kms6PuY1hgF0NJfXH-6" target="tIdLxzSFmMruNyFhSA0Y-10" edge="1">
          <mxGeometry relative="1" as="geometry" />
        </mxCell>
        <mxCell id="0x2kms6PuY1hgF0NJfXH-6" value="pilihan == 3" style="rhombus;whiteSpace=wrap;html=1;fillColor=#e1d5e7;strokeColor=#9673a6;" parent="1" vertex="1">
          <mxGeometry x="620" y="870" width="110" height="100" as="geometry" />
        </mxCell>
        <mxCell id="0x2kms6PuY1hgF0NJfXH-7" value="&lt;b&gt;&lt;font style=&quot;font-size: 13px;&quot;&gt;Yes&lt;/font&gt;&lt;/b&gt;" style="text;html=1;align=center;verticalAlign=middle;whiteSpace=wrap;rounded=0;" parent="1" vertex="1">
          <mxGeometry x="670" y="969" width="60" height="30" as="geometry" />
        </mxCell>
        <mxCell id="0x2kms6PuY1hgF0NJfXH-8" value="&lt;font size=&quot;1&quot; style=&quot;&quot;&gt;&lt;b style=&quot;font-size: 13px;&quot;&gt;No&lt;/b&gt;&lt;/font&gt;" style="text;html=1;align=center;verticalAlign=middle;whiteSpace=wrap;rounded=0;" parent="1" vertex="1">
          <mxGeometry x="715" y="889" width="60" height="30" as="geometry" />
        </mxCell>
        <mxCell id="0x2kms6PuY1hgF0NJfXH-9" value="" style="shape=offPageConnector;whiteSpace=wrap;html=1;fillColor=#b1ddf0;strokeColor=#10739e;" parent="1" vertex="1">
          <mxGeometry x="635" y="1035" width="80" height="80" as="geometry" />
        </mxCell>
        <mxCell id="0x2kms6PuY1hgF0NJfXH-10" value="&lt;b&gt;MENU SPAREPART&lt;/b&gt;" style="text;html=1;align=center;verticalAlign=middle;whiteSpace=wrap;rounded=0;" parent="1" vertex="1">
          <mxGeometry x="645" y="1060" width="60" height="30" as="geometry" />
        </mxCell>
        <mxCell id="ht2qsqfQVNF2kWCrhg32-3" style="edgeStyle=orthogonalEdgeStyle;rounded=0;orthogonalLoop=1;jettySize=auto;html=1;" parent="1" source="ht2qsqfQVNF2kWCrhg32-1" edge="1">
          <mxGeometry relative="1" as="geometry">
            <mxPoint x="310" y="140" as="targetPoint" />
          </mxGeometry>
        </mxCell>
        <mxCell id="ht2qsqfQVNF2kWCrhg32-1" value="" style="shape=offPageConnector;whiteSpace=wrap;html=1;fillColor=#b1ddf0;strokeColor=#10739e;" parent="1" vertex="1">
          <mxGeometry x="270" y="10" width="80" height="80" as="geometry" />
        </mxCell>
        <mxCell id="ht2qsqfQVNF2kWCrhg32-2" value="&lt;b&gt;MENU SPAREPART&lt;/b&gt;&lt;div&gt;&lt;b&gt;OUT&lt;/b&gt;&lt;/div&gt;" style="text;html=1;align=center;verticalAlign=middle;whiteSpace=wrap;rounded=0;" parent="1" vertex="1">
          <mxGeometry x="280" y="35" width="60" height="30" as="geometry" />
        </mxCell>
        <mxCell id="BQVQu91EtOIKlIVVuGqR-3" style="edgeStyle=orthogonalEdgeStyle;rounded=0;orthogonalLoop=1;jettySize=auto;html=1;" edge="1" parent="1" source="BQVQu91EtOIKlIVVuGqR-1" target="Rpid0hSL9oDNLBRW-pHH-2">
          <mxGeometry relative="1" as="geometry" />
        </mxCell>
        <mxCell id="BQVQu91EtOIKlIVVuGqR-1" value="&lt;b&gt;Keterangan&lt;/b&gt;" style="shape=parallelogram;perimeter=parallelogramPerimeter;whiteSpace=wrap;html=1;fixedSize=1;fillStyle=solid;fillColor=#fff2cc;strokeColor=#d6b656;" vertex="1" parent="1">
          <mxGeometry x="103" y="1270" width="120" height="60" as="geometry" />
        </mxCell>
        <mxCell id="BQVQu91EtOIKlIVVuGqR-2" value="" style="endArrow=classic;html=1;rounded=0;entryX=0;entryY=0;entryDx=0;entryDy=0;" edge="1" parent="1">
          <mxGeometry width="50" height="50" relative="1" as="geometry">
            <mxPoint x="82" y="1279" as="sourcePoint" />
            <mxPoint x="114" y="1279" as="targetPoint" />
          </mxGeometry>
        </mxCell>
      </root>
    </mxGraphModel>
  </diagram>
  <diagram id="WUhNwjZN4t9wrAAMGEE8" name="menu_sparepart">
    <mxGraphModel dx="309" dy="695" grid="1" gridSize="10" guides="1" tooltips="1" connect="1" arrows="1" fold="1" page="1" pageScale="1" pageWidth="1169" pageHeight="1654" math="0" shadow="0">
      <root>
        <mxCell id="0" />
        <mxCell id="1" parent="0" />
        <mxCell id="EgyQL1Q2a5_0WHeXDhvq-1" style="edgeStyle=orthogonalEdgeStyle;rounded=0;orthogonalLoop=1;jettySize=auto;html=1;entryX=0.5;entryY=0;entryDx=0;entryDy=0;" parent="1" source="RgUAQE7ug8CQuHU-yODT-1" target="G6MFuAS147ZNpahksACf-2" edge="1">
          <mxGeometry relative="1" as="geometry" />
        </mxCell>
        <mxCell id="RgUAQE7ug8CQuHU-yODT-1" value="&lt;blockquote style=&quot;margin: 0 0 0 40px; border: none; padding: 0px;&quot;&gt;&lt;br&gt;&lt;/blockquote&gt;" style="shape=parallelogram;perimeter=parallelogramPerimeter;whiteSpace=wrap;html=1;fixedSize=1;fillColor=#dae8fc;strokeColor=#6c8ebf;align=left;" parent="1" vertex="1">
          <mxGeometry x="1216" y="180" width="189.5" height="120" as="geometry" />
        </mxCell>
        <mxCell id="RgUAQE7ug8CQuHU-yODT-2" value="&lt;blockquote style=&quot;margin: 0 0 0 40px; border: none; padding: 0px;&quot;&gt;&lt;b style=&quot;background-color: initial;&quot;&gt;&lt;font style=&quot;font-size: 13px;&quot;&gt;Menu Sparepart:&lt;/font&gt;&lt;/b&gt;&lt;/blockquote&gt;&lt;blockquote style=&quot;margin: 0 0 0 40px; border: none; padding: 0px;&quot;&gt;&lt;b style=&quot;background-color: initial; font-size: 13px;&quot;&gt;1. &lt;/b&gt;&lt;span style=&quot;background-color: initial; font-size: 13px;&quot;&gt;Tambah&lt;/span&gt;&lt;/blockquote&gt;&lt;blockquote style=&quot;margin: 0 0 0 40px; border: none; padding: 0px;&quot;&gt;&lt;span style=&quot;font-size: 13px;&quot;&gt;&lt;b&gt;2. &lt;/b&gt;Update&amp;nbsp;&lt;br&gt;&lt;/span&gt;&lt;div style=&quot;&quot;&gt;&lt;span style=&quot;font-size: 13px;&quot;&gt;&lt;b style=&quot;background-color: initial;&quot;&gt;3. &lt;/b&gt;&lt;span style=&quot;background-color: initial;&quot;&gt;Delete&lt;/span&gt;&lt;/span&gt;&lt;/div&gt;&lt;div style=&quot;&quot;&gt;&lt;span style=&quot;font-size: 13px;&quot;&gt;&lt;span style=&quot;background-color: initial;&quot;&gt;&lt;b&gt;4. &lt;/b&gt;Save dan exit&lt;/span&gt;&lt;/span&gt;&lt;/div&gt;&lt;/blockquote&gt;" style="text;html=1;align=left;verticalAlign=middle;whiteSpace=wrap;rounded=0;" parent="1" vertex="1">
          <mxGeometry x="1235.5" y="200" width="130" height="80" as="geometry" />
        </mxCell>
        <mxCell id="92EHZ0XNSyCU26RhdSEN-1" style="edgeStyle=orthogonalEdgeStyle;rounded=0;orthogonalLoop=1;jettySize=auto;html=1;entryX=0.5;entryY=0;entryDx=0;entryDy=0;" parent="1" source="rJvxpkI4yTVVMDxN9Vjg-1" target="RgUAQE7ug8CQuHU-yODT-1" edge="1">
          <mxGeometry relative="1" as="geometry" />
        </mxCell>
        <mxCell id="rJvxpkI4yTVVMDxN9Vjg-1" value="" style="shape=offPageConnector;whiteSpace=wrap;html=1;fillColor=#b1ddf0;strokeColor=#10739e;" parent="1" vertex="1">
          <mxGeometry x="1270" y="40" width="80" height="80" as="geometry" />
        </mxCell>
        <mxCell id="rJvxpkI4yTVVMDxN9Vjg-2" value="&lt;b&gt;MENU SPAREPART&lt;/b&gt;" style="text;html=1;align=center;verticalAlign=middle;whiteSpace=wrap;rounded=0;" parent="1" vertex="1">
          <mxGeometry x="1280" y="65" width="60" height="30" as="geometry" />
        </mxCell>
        <mxCell id="G6MFuAS147ZNpahksACf-1" style="edgeStyle=orthogonalEdgeStyle;rounded=0;orthogonalLoop=1;jettySize=auto;html=1;" parent="1" source="G6MFuAS147ZNpahksACf-2" edge="1">
          <mxGeometry relative="1" as="geometry">
            <mxPoint x="1310.5" y="490" as="targetPoint" />
          </mxGeometry>
        </mxCell>
        <mxCell id="G6MFuAS147ZNpahksACf-2" value="&lt;b&gt;Pilih menu :&lt;/b&gt;" style="shape=parallelogram;perimeter=parallelogramPerimeter;whiteSpace=wrap;html=1;fixedSize=1;fillStyle=solid;fillColor=#fff2cc;strokeColor=#d6b656;" parent="1" vertex="1">
          <mxGeometry x="1250.5" y="350" width="120" height="60" as="geometry" />
        </mxCell>
        <mxCell id="G6MFuAS147ZNpahksACf-3" value="" style="endArrow=classic;html=1;rounded=0;" parent="1" edge="1">
          <mxGeometry width="50" height="50" relative="1" as="geometry">
            <mxPoint x="1235.5" y="360" as="sourcePoint" />
            <mxPoint x="1265.5" y="360" as="targetPoint" />
          </mxGeometry>
        </mxCell>
        <mxCell id="G6MFuAS147ZNpahksACf-4" style="edgeStyle=orthogonalEdgeStyle;rounded=0;orthogonalLoop=1;jettySize=auto;html=1;" parent="1" source="G6MFuAS147ZNpahksACf-6" edge="1">
          <mxGeometry relative="1" as="geometry">
            <mxPoint x="1510" y="540" as="targetPoint" />
          </mxGeometry>
        </mxCell>
        <mxCell id="G6MFuAS147ZNpahksACf-5" style="edgeStyle=orthogonalEdgeStyle;rounded=0;orthogonalLoop=1;jettySize=auto;html=1;" parent="1" source="G6MFuAS147ZNpahksACf-6" edge="1">
          <mxGeometry relative="1" as="geometry">
            <mxPoint x="1310.5" y="656" as="targetPoint" />
          </mxGeometry>
        </mxCell>
        <mxCell id="G6MFuAS147ZNpahksACf-6" value="pilihan == 1" style="rhombus;whiteSpace=wrap;html=1;fillColor=#e1d5e7;strokeColor=#9673a6;" parent="1" vertex="1">
          <mxGeometry x="1255.5" y="490" width="110" height="100" as="geometry" />
        </mxCell>
        <mxCell id="G6MFuAS147ZNpahksACf-7" value="&lt;b&gt;&lt;font style=&quot;font-size: 13px;&quot;&gt;Yes&lt;/font&gt;&lt;/b&gt;" style="text;html=1;align=center;verticalAlign=middle;whiteSpace=wrap;rounded=0;" parent="1" vertex="1">
          <mxGeometry x="1310.5" y="596" width="60" height="30" as="geometry" />
        </mxCell>
        <mxCell id="G6MFuAS147ZNpahksACf-8" value="&lt;font size=&quot;1&quot; style=&quot;&quot;&gt;&lt;b style=&quot;font-size: 13px;&quot;&gt;No&lt;/b&gt;&lt;/font&gt;" style="text;html=1;align=center;verticalAlign=middle;whiteSpace=wrap;rounded=0;" parent="1" vertex="1">
          <mxGeometry x="1355.5" y="510" width="60" height="30" as="geometry" />
        </mxCell>
        <mxCell id="uv0idH4zMKu7t5Wtrx65-5" style="edgeStyle=orthogonalEdgeStyle;rounded=0;orthogonalLoop=1;jettySize=auto;html=1;" parent="1" source="G6MFuAS147ZNpahksACf-9" target="uv0idH4zMKu7t5Wtrx65-2" edge="1">
          <mxGeometry relative="1" as="geometry" />
        </mxCell>
        <mxCell id="G6MFuAS147ZNpahksACf-9" value="&lt;b&gt;Sparepart&lt;/b&gt;" style="shape=parallelogram;perimeter=parallelogramPerimeter;whiteSpace=wrap;html=1;fixedSize=1;fillStyle=solid;fillColor=#fff2cc;strokeColor=#d6b656;" parent="1" vertex="1">
          <mxGeometry x="1252.5" y="658" width="120" height="60" as="geometry" />
        </mxCell>
        <mxCell id="G6MFuAS147ZNpahksACf-10" value="" style="endArrow=classic;html=1;rounded=0;entryX=0;entryY=0;entryDx=0;entryDy=0;" parent="1" target="G6MFuAS147ZNpahksACf-9" edge="1">
          <mxGeometry width="50" height="50" relative="1" as="geometry">
            <mxPoint x="1237.5" y="667" as="sourcePoint" />
            <mxPoint x="1527.5" y="678" as="targetPoint" />
          </mxGeometry>
        </mxCell>
        <mxCell id="G6MFuAS147ZNpahksACf-11" style="edgeStyle=orthogonalEdgeStyle;rounded=0;orthogonalLoop=1;jettySize=auto;html=1;" parent="1" source="G6MFuAS147ZNpahksACf-13" edge="1">
          <mxGeometry relative="1" as="geometry">
            <mxPoint x="1730" y="541" as="targetPoint" />
          </mxGeometry>
        </mxCell>
        <mxCell id="G6MFuAS147ZNpahksACf-12" style="edgeStyle=orthogonalEdgeStyle;rounded=0;orthogonalLoop=1;jettySize=auto;html=1;entryX=0.5;entryY=0;entryDx=0;entryDy=0;" parent="1" source="G6MFuAS147ZNpahksACf-13" edge="1">
          <mxGeometry relative="1" as="geometry">
            <mxPoint x="1562.5" y="655" as="targetPoint" />
          </mxGeometry>
        </mxCell>
        <mxCell id="G6MFuAS147ZNpahksACf-13" value="pilihan == 2" style="rhombus;whiteSpace=wrap;html=1;fillColor=#e1d5e7;strokeColor=#9673a6;" parent="1" vertex="1">
          <mxGeometry x="1507.25" y="492" width="110" height="100" as="geometry" />
        </mxCell>
        <mxCell id="G6MFuAS147ZNpahksACf-14" value="&lt;b&gt;&lt;font style=&quot;font-size: 13px;&quot;&gt;Yes&lt;/font&gt;&lt;/b&gt;" style="text;html=1;align=center;verticalAlign=middle;whiteSpace=wrap;rounded=0;" parent="1" vertex="1">
          <mxGeometry x="1567.25" y="592" width="60" height="30" as="geometry" />
        </mxCell>
        <mxCell id="G6MFuAS147ZNpahksACf-15" value="&lt;font size=&quot;1&quot; style=&quot;&quot;&gt;&lt;b style=&quot;font-size: 13px;&quot;&gt;No&lt;/b&gt;&lt;/font&gt;" style="text;html=1;align=center;verticalAlign=middle;whiteSpace=wrap;rounded=0;" parent="1" vertex="1">
          <mxGeometry x="1601.25" y="509" width="60" height="30" as="geometry" />
        </mxCell>
        <mxCell id="G6MFuAS147ZNpahksACf-35" style="edgeStyle=orthogonalEdgeStyle;rounded=0;orthogonalLoop=1;jettySize=auto;html=1;" parent="1" edge="1">
          <mxGeometry relative="1" as="geometry">
            <mxPoint x="1313" y="130" as="targetPoint" />
            <mxPoint x="2173" y="512" as="sourcePoint" />
            <Array as="points">
              <mxPoint x="2173" y="130" />
            </Array>
          </mxGeometry>
        </mxCell>
        <mxCell id="G6MFuAS147ZNpahksACf-16" value="&lt;b&gt;Menu tidak&amp;nbsp;&lt;/b&gt;&lt;div&gt;&lt;b&gt;tersedia&lt;/b&gt;&lt;/div&gt;" style="shape=parallelogram;perimeter=parallelogramPerimeter;whiteSpace=wrap;html=1;fixedSize=1;fillColor=#fff2cc;strokeColor=#d6b656;" parent="1" vertex="1">
          <mxGeometry x="2110" y="511" width="120" height="60" as="geometry" />
        </mxCell>
        <mxCell id="G6MFuAS147ZNpahksACf-17" value="" style="endArrow=classic;html=1;rounded=0;exitX=1;exitY=1;exitDx=0;exitDy=0;" parent="1" edge="1">
          <mxGeometry width="50" height="50" relative="1" as="geometry">
            <mxPoint x="2213" y="561" as="sourcePoint" />
            <mxPoint x="2251" y="561" as="targetPoint" />
          </mxGeometry>
        </mxCell>
        <mxCell id="G6MFuAS147ZNpahksACf-22" value="" style="shape=offPageConnector;whiteSpace=wrap;html=1;fillColor=#b1ddf0;strokeColor=#10739e;" parent="1" vertex="1">
          <mxGeometry x="1954" y="658" width="80" height="80" as="geometry" />
        </mxCell>
        <mxCell id="G6MFuAS147ZNpahksACf-23" value="&lt;b&gt;MENU SPAREPART&lt;/b&gt;&lt;div&gt;&lt;b&gt;OUT&lt;/b&gt;&lt;/div&gt;" style="text;html=1;align=center;verticalAlign=middle;whiteSpace=wrap;rounded=0;" parent="1" vertex="1">
          <mxGeometry x="1964" y="683" width="60" height="30" as="geometry" />
        </mxCell>
        <mxCell id="G6MFuAS147ZNpahksACf-25" style="edgeStyle=orthogonalEdgeStyle;rounded=0;orthogonalLoop=1;jettySize=auto;html=1;entryX=0.5;entryY=0;entryDx=0;entryDy=0;" parent="1" source="G6MFuAS147ZNpahksACf-27" edge="1">
          <mxGeometry relative="1" as="geometry">
            <mxPoint x="1786.25" y="657.5" as="targetPoint" />
          </mxGeometry>
        </mxCell>
        <mxCell id="TtEpRhDdquzznKzBgtL7-26" style="edgeStyle=orthogonalEdgeStyle;rounded=0;orthogonalLoop=1;jettySize=auto;html=1;entryX=0;entryY=0.5;entryDx=0;entryDy=0;" parent="1" source="G6MFuAS147ZNpahksACf-27" target="TtEpRhDdquzznKzBgtL7-23" edge="1">
          <mxGeometry relative="1" as="geometry">
            <mxPoint x="1922" y="543.5" as="targetPoint" />
          </mxGeometry>
        </mxCell>
        <mxCell id="G6MFuAS147ZNpahksACf-27" value="pilihan == 3" style="rhombus;whiteSpace=wrap;html=1;fillColor=#e1d5e7;strokeColor=#9673a6;" parent="1" vertex="1">
          <mxGeometry x="1731.25" y="493.5" width="110" height="100" as="geometry" />
        </mxCell>
        <mxCell id="G6MFuAS147ZNpahksACf-28" value="&lt;b&gt;&lt;font style=&quot;font-size: 13px;&quot;&gt;Yes&lt;/font&gt;&lt;/b&gt;" style="text;html=1;align=center;verticalAlign=middle;whiteSpace=wrap;rounded=0;" parent="1" vertex="1">
          <mxGeometry x="1791.25" y="594.5" width="60" height="30" as="geometry" />
        </mxCell>
        <mxCell id="G6MFuAS147ZNpahksACf-29" value="&lt;font size=&quot;1&quot; style=&quot;&quot;&gt;&lt;b style=&quot;font-size: 13px;&quot;&gt;No&lt;/b&gt;&lt;/font&gt;" style="text;html=1;align=center;verticalAlign=middle;whiteSpace=wrap;rounded=0;" parent="1" vertex="1">
          <mxGeometry x="1825.25" y="511.5" width="60" height="30" as="geometry" />
        </mxCell>
        <mxCell id="EgyQL1Q2a5_0WHeXDhvq-2" value="" style="endArrow=classic;html=1;rounded=0;exitX=1;exitY=1;exitDx=0;exitDy=0;" parent="1" source="RgUAQE7ug8CQuHU-yODT-1" edge="1">
          <mxGeometry width="50" height="50" relative="1" as="geometry">
            <mxPoint x="1660" y="360" as="sourcePoint" />
            <mxPoint x="1430" y="289" as="targetPoint" />
          </mxGeometry>
        </mxCell>
        <mxCell id="uv0idH4zMKu7t5Wtrx65-1" style="edgeStyle=orthogonalEdgeStyle;rounded=0;orthogonalLoop=1;jettySize=auto;html=1;" parent="1" source="uv0idH4zMKu7t5Wtrx65-2" edge="1">
          <mxGeometry relative="1" as="geometry">
            <mxPoint x="1312" y="921" as="targetPoint" />
          </mxGeometry>
        </mxCell>
        <mxCell id="uv0idH4zMKu7t5Wtrx65-2" value="&lt;b&gt;Store&lt;/b&gt;&lt;div&gt;Sparepart&lt;/div&gt;" style="rounded=0;whiteSpace=wrap;html=1;fillColor=#fad9d5;strokeColor=#ae4132;" parent="1" vertex="1">
          <mxGeometry x="1237" y="781" width="150" height="80" as="geometry" />
        </mxCell>
        <mxCell id="uv0idH4zMKu7t5Wtrx65-7" style="edgeStyle=orthogonalEdgeStyle;rounded=0;orthogonalLoop=1;jettySize=auto;html=1;" parent="1" source="uv0idH4zMKu7t5Wtrx65-3" edge="1">
          <mxGeometry relative="1" as="geometry">
            <mxPoint x="1310" y="130" as="targetPoint" />
            <Array as="points">
              <mxPoint x="1200" y="970" />
              <mxPoint x="1200" y="130" />
            </Array>
          </mxGeometry>
        </mxCell>
        <mxCell id="uv0idH4zMKu7t5Wtrx65-3" value="" style="shape=cylinder3;whiteSpace=wrap;html=1;boundedLbl=1;backgroundOutline=1;size=15;fillColor=#ffcc99;strokeColor=#36393d;" parent="1" vertex="1">
          <mxGeometry x="1268" y="921" width="90" height="100" as="geometry" />
        </mxCell>
        <mxCell id="uv0idH4zMKu7t5Wtrx65-4" value="&lt;b&gt;&lt;font style=&quot;font-size: 14px;&quot;&gt;Database&lt;/font&gt;&lt;/b&gt;" style="text;html=1;align=center;verticalAlign=middle;whiteSpace=wrap;rounded=0;" parent="1" vertex="1">
          <mxGeometry x="1283" y="971" width="60" height="30" as="geometry" />
        </mxCell>
        <mxCell id="TtEpRhDdquzznKzBgtL7-11" style="edgeStyle=orthogonalEdgeStyle;rounded=0;orthogonalLoop=1;jettySize=auto;html=1;" parent="1" source="TtEpRhDdquzznKzBgtL7-12" target="TtEpRhDdquzznKzBgtL7-15" edge="1">
          <mxGeometry relative="1" as="geometry" />
        </mxCell>
        <mxCell id="TtEpRhDdquzznKzBgtL7-12" value="&lt;b&gt;Sparepart&lt;/b&gt;&lt;div&gt;&lt;b&gt;Baru&lt;/b&gt;&lt;/div&gt;" style="shape=parallelogram;perimeter=parallelogramPerimeter;whiteSpace=wrap;html=1;fixedSize=1;fillStyle=solid;fillColor=#fff2cc;strokeColor=#d6b656;" parent="1" vertex="1">
          <mxGeometry x="1503.25" y="781" width="120" height="60" as="geometry" />
        </mxCell>
        <mxCell id="TtEpRhDdquzznKzBgtL7-13" value="" style="endArrow=classic;html=1;rounded=0;entryX=0;entryY=0;entryDx=0;entryDy=0;" parent="1" target="TtEpRhDdquzznKzBgtL7-12" edge="1">
          <mxGeometry width="50" height="50" relative="1" as="geometry">
            <mxPoint x="1488.25" y="790" as="sourcePoint" />
            <mxPoint x="1778.25" y="801" as="targetPoint" />
          </mxGeometry>
        </mxCell>
        <mxCell id="TtEpRhDdquzznKzBgtL7-14" style="edgeStyle=orthogonalEdgeStyle;rounded=0;orthogonalLoop=1;jettySize=auto;html=1;" parent="1" source="TtEpRhDdquzznKzBgtL7-15" edge="1">
          <mxGeometry relative="1" as="geometry">
            <mxPoint x="1200" y="950" as="targetPoint" />
            <Array as="points">
              <mxPoint x="1563" y="1110" />
            </Array>
          </mxGeometry>
        </mxCell>
        <mxCell id="TtEpRhDdquzznKzBgtL7-15" value="&lt;b&gt;Sparepart = Sparepart&lt;/b&gt;&lt;div&gt;&lt;b&gt;baru&lt;/b&gt;&lt;/div&gt;" style="rounded=0;whiteSpace=wrap;html=1;fillColor=#fad9d5;strokeColor=#ae4132;" parent="1" vertex="1">
          <mxGeometry x="1487.75" y="904" width="150" height="80" as="geometry" />
        </mxCell>
        <mxCell id="TtEpRhDdquzznKzBgtL7-18" style="edgeStyle=orthogonalEdgeStyle;rounded=0;orthogonalLoop=1;jettySize=auto;html=1;" parent="1" source="TtEpRhDdquzznKzBgtL7-19" edge="1">
          <mxGeometry relative="1" as="geometry">
            <mxPoint x="1562" y="781" as="targetPoint" />
          </mxGeometry>
        </mxCell>
        <mxCell id="TtEpRhDdquzznKzBgtL7-19" value="&lt;b&gt;ID Sparepart&lt;/b&gt;" style="shape=parallelogram;perimeter=parallelogramPerimeter;whiteSpace=wrap;html=1;fixedSize=1;fillStyle=solid;fillColor=#fff2cc;strokeColor=#d6b656;" parent="1" vertex="1">
          <mxGeometry x="1502.75" y="658" width="120" height="60" as="geometry" />
        </mxCell>
        <mxCell id="TtEpRhDdquzznKzBgtL7-20" value="" style="endArrow=classic;html=1;rounded=0;entryX=0;entryY=0;entryDx=0;entryDy=0;" parent="1" target="TtEpRhDdquzznKzBgtL7-19" edge="1">
          <mxGeometry width="50" height="50" relative="1" as="geometry">
            <mxPoint x="1487.75" y="667" as="sourcePoint" />
            <mxPoint x="1777.75" y="678" as="targetPoint" />
          </mxGeometry>
        </mxCell>
        <mxCell id="TtEpRhDdquzznKzBgtL7-22" style="edgeStyle=orthogonalEdgeStyle;rounded=0;orthogonalLoop=1;jettySize=auto;html=1;entryX=0.5;entryY=0;entryDx=0;entryDy=0;" parent="1" source="TtEpRhDdquzznKzBgtL7-23" edge="1">
          <mxGeometry relative="1" as="geometry">
            <mxPoint x="1994" y="659" as="targetPoint" />
          </mxGeometry>
        </mxCell>
        <mxCell id="TtEpRhDdquzznKzBgtL7-23" value="pilihan == 4" style="rhombus;whiteSpace=wrap;html=1;fillColor=#e1d5e7;strokeColor=#9673a6;" parent="1" vertex="1">
          <mxGeometry x="1939" y="495" width="110" height="100" as="geometry" />
        </mxCell>
        <mxCell id="TtEpRhDdquzznKzBgtL7-24" value="&lt;b&gt;&lt;font style=&quot;font-size: 13px;&quot;&gt;Yes&lt;/font&gt;&lt;/b&gt;" style="text;html=1;align=center;verticalAlign=middle;whiteSpace=wrap;rounded=0;" parent="1" vertex="1">
          <mxGeometry x="1999" y="596" width="60" height="30" as="geometry" />
        </mxCell>
        <mxCell id="TtEpRhDdquzznKzBgtL7-25" value="&lt;font size=&quot;1&quot; style=&quot;&quot;&gt;&lt;b style=&quot;font-size: 13px;&quot;&gt;No&lt;/b&gt;&lt;/font&gt;" style="text;html=1;align=center;verticalAlign=middle;whiteSpace=wrap;rounded=0;" parent="1" vertex="1">
          <mxGeometry x="2040" y="511.5" width="60" height="30" as="geometry" />
        </mxCell>
        <mxCell id="TtEpRhDdquzznKzBgtL7-27" style="edgeStyle=orthogonalEdgeStyle;rounded=0;orthogonalLoop=1;jettySize=auto;html=1;entryX=0.044;entryY=0.568;entryDx=0;entryDy=0;entryPerimeter=0;" parent="1" source="TtEpRhDdquzznKzBgtL7-23" target="G6MFuAS147ZNpahksACf-16" edge="1">
          <mxGeometry relative="1" as="geometry" />
        </mxCell>
        <mxCell id="TtEpRhDdquzznKzBgtL7-35" style="edgeStyle=orthogonalEdgeStyle;rounded=0;orthogonalLoop=1;jettySize=auto;html=1;" parent="1" source="TtEpRhDdquzznKzBgtL7-36" edge="1">
          <mxGeometry relative="1" as="geometry">
            <mxPoint x="1785.5" y="781" as="targetPoint" />
          </mxGeometry>
        </mxCell>
        <mxCell id="TtEpRhDdquzznKzBgtL7-36" value="&lt;b&gt;ID Sparepart&lt;/b&gt;" style="shape=parallelogram;perimeter=parallelogramPerimeter;whiteSpace=wrap;html=1;fixedSize=1;fillStyle=solid;fillColor=#fff2cc;strokeColor=#d6b656;" parent="1" vertex="1">
          <mxGeometry x="1726.25" y="658" width="120" height="60" as="geometry" />
        </mxCell>
        <mxCell id="TtEpRhDdquzznKzBgtL7-37" value="" style="endArrow=classic;html=1;rounded=0;entryX=0;entryY=0;entryDx=0;entryDy=0;" parent="1" target="TtEpRhDdquzznKzBgtL7-36" edge="1">
          <mxGeometry width="50" height="50" relative="1" as="geometry">
            <mxPoint x="1711.25" y="667" as="sourcePoint" />
            <mxPoint x="2001.25" y="678" as="targetPoint" />
          </mxGeometry>
        </mxCell>
        <mxCell id="VNykKK5aP1GZ3ibYc8zf-3" style="edgeStyle=orthogonalEdgeStyle;rounded=0;orthogonalLoop=1;jettySize=auto;html=1;" parent="1" source="VNykKK5aP1GZ3ibYc8zf-1" edge="1">
          <mxGeometry relative="1" as="geometry">
            <mxPoint x="1670" y="130" as="targetPoint" />
          </mxGeometry>
        </mxCell>
        <mxCell id="VNykKK5aP1GZ3ibYc8zf-1" value="&lt;b&gt;Hapus Data Sparepart Sesuai ID&amp;nbsp;&lt;/b&gt;&lt;b style=&quot;background-color: initial;&quot;&gt;yang Diinputkan&lt;/b&gt;" style="rounded=0;whiteSpace=wrap;html=1;fillColor=#fad9d5;strokeColor=#ae4132;" parent="1" vertex="1">
          <mxGeometry x="1711.25" y="781" width="150" height="80" as="geometry" />
        </mxCell>
      </root>
    </mxGraphModel>
  </diagram>
</mxfile>
